<mxfile host="65bd71144e" modified="2020-11-27T17:18:59.121Z" agent="5.0 (X11; Linux x86_64) AppleWebKit/537.36 (KHTML, like Gecko) Code/1.51.1 Chrome/83.0.4103.122 Electron/9.3.3 Safari/537.36" etag="FNVVhBT1EaBcGCdASJC3" version="13.6.5">
    <diagram id="xbYpVy04zfx8oQZbJUHU" name="Page-1">
        <mxGraphModel dx="6794" dy="3372" grid="1" gridSize="10" guides="0" tooltips="1" connect="1" arrows="1" fold="1" page="1" pageScale="1" pageWidth="827" pageHeight="1169" math="0" shadow="0">
            <root>
                <mxCell id="0"/>
                <mxCell id="1" parent="0"/>
                <mxCell id="xLHPYMrKe80LzgOzbX_y-106" value="&lt;&lt;interface&gt;&gt;&#10;Componente" style="swimlane;fontStyle=1;align=center;verticalAlign=top;childLayout=stackLayout;horizontal=1;startSize=40;horizontalStack=0;resizeParent=1;resizeParentMax=0;resizeLast=0;collapsible=1;marginBottom=0;" parent="1" vertex="1">
                    <mxGeometry x="-160" y="-40" width="160" height="152" as="geometry"/>
                </mxCell>
                <mxCell id="xLHPYMrKe80LzgOzbX_y-108" value="" style="line;strokeWidth=1;fillColor=none;align=left;verticalAlign=middle;spacingTop=-1;spacingLeft=3;spacingRight=3;rotatable=0;labelPosition=right;points=[];portConstraint=eastwest;" parent="xLHPYMrKe80LzgOzbX_y-106" vertex="1">
                    <mxGeometry y="40" width="160" height="8" as="geometry"/>
                </mxCell>
                <mxCell id="xLHPYMrKe80LzgOzbX_y-109" value="+ getAtaque(): int" style="text;strokeColor=none;fillColor=none;align=left;verticalAlign=top;spacingLeft=4;spacingRight=4;overflow=hidden;rotatable=0;points=[[0,0.5],[1,0.5]];portConstraint=eastwest;" parent="xLHPYMrKe80LzgOzbX_y-106" vertex="1">
                    <mxGeometry y="48" width="160" height="26" as="geometry"/>
                </mxCell>
                <mxCell id="xLHPYMrKe80LzgOzbX_y-111" value="+ getDefensa(): int" style="text;strokeColor=none;fillColor=none;align=left;verticalAlign=top;spacingLeft=4;spacingRight=4;overflow=hidden;rotatable=0;points=[[0,0.5],[1,0.5]];portConstraint=eastwest;" parent="xLHPYMrKe80LzgOzbX_y-106" vertex="1">
                    <mxGeometry y="74" width="160" height="26" as="geometry"/>
                </mxCell>
                <mxCell id="xLHPYMrKe80LzgOzbX_y-110" value="+ getVelocidad(): int" style="text;strokeColor=none;fillColor=none;align=left;verticalAlign=top;spacingLeft=4;spacingRight=4;overflow=hidden;rotatable=0;points=[[0,0.5],[1,0.5]];portConstraint=eastwest;" parent="xLHPYMrKe80LzgOzbX_y-106" vertex="1">
                    <mxGeometry y="100" width="160" height="26" as="geometry"/>
                </mxCell>
                <mxCell id="xLHPYMrKe80LzgOzbX_y-112" value="+ getCosto(): int" style="text;strokeColor=none;fillColor=none;align=left;verticalAlign=top;spacingLeft=4;spacingRight=4;overflow=hidden;rotatable=0;points=[[0,0.5],[1,0.5]];portConstraint=eastwest;" parent="xLHPYMrKe80LzgOzbX_y-106" vertex="1">
                    <mxGeometry y="126" width="160" height="26" as="geometry"/>
                </mxCell>
                <mxCell id="xLHPYMrKe80LzgOzbX_y-173" value="MotorDeportivo" style="swimlane;fontStyle=1;align=center;verticalAlign=top;childLayout=stackLayout;horizontal=1;startSize=40;horizontalStack=0;resizeParent=1;resizeParentMax=0;resizeLast=0;collapsible=1;marginBottom=0;" parent="1" vertex="1">
                    <mxGeometry x="240" y="640" width="160" height="152" as="geometry"/>
                </mxCell>
                <mxCell id="xLHPYMrKe80LzgOzbX_y-178" value="" style="line;strokeWidth=1;fillColor=none;align=left;verticalAlign=middle;spacingTop=-1;spacingLeft=3;spacingRight=3;rotatable=0;labelPosition=right;points=[];portConstraint=eastwest;" parent="xLHPYMrKe80LzgOzbX_y-173" vertex="1">
                    <mxGeometry y="40" width="160" height="8" as="geometry"/>
                </mxCell>
                <mxCell id="xLHPYMrKe80LzgOzbX_y-179" value="+ getAtaque(): int" style="text;strokeColor=none;fillColor=none;align=left;verticalAlign=top;spacingLeft=4;spacingRight=4;overflow=hidden;rotatable=0;points=[[0,0.5],[1,0.5]];portConstraint=eastwest;" parent="xLHPYMrKe80LzgOzbX_y-173" vertex="1">
                    <mxGeometry y="48" width="160" height="26" as="geometry"/>
                </mxCell>
                <mxCell id="xLHPYMrKe80LzgOzbX_y-180" value="+ getDefensa(): int" style="text;strokeColor=none;fillColor=none;align=left;verticalAlign=top;spacingLeft=4;spacingRight=4;overflow=hidden;rotatable=0;points=[[0,0.5],[1,0.5]];portConstraint=eastwest;" parent="xLHPYMrKe80LzgOzbX_y-173" vertex="1">
                    <mxGeometry y="74" width="160" height="26" as="geometry"/>
                </mxCell>
                <mxCell id="xLHPYMrKe80LzgOzbX_y-181" value="+ getVelocidad(): int" style="text;strokeColor=none;fillColor=none;align=left;verticalAlign=top;spacingLeft=4;spacingRight=4;overflow=hidden;rotatable=0;points=[[0,0.5],[1,0.5]];portConstraint=eastwest;" parent="xLHPYMrKe80LzgOzbX_y-173" vertex="1">
                    <mxGeometry y="100" width="160" height="26" as="geometry"/>
                </mxCell>
                <mxCell id="xLHPYMrKe80LzgOzbX_y-182" value="+ getCosto(): int" style="text;strokeColor=none;fillColor=none;align=left;verticalAlign=top;spacingLeft=4;spacingRight=4;overflow=hidden;rotatable=0;points=[[0,0.5],[1,0.5]];portConstraint=eastwest;" parent="xLHPYMrKe80LzgOzbX_y-173" vertex="1">
                    <mxGeometry y="126" width="160" height="26" as="geometry"/>
                </mxCell>
                <mxCell id="xLHPYMrKe80LzgOzbX_y-183" value="MotorDiesel" style="swimlane;fontStyle=1;align=center;verticalAlign=top;childLayout=stackLayout;horizontal=1;startSize=40;horizontalStack=0;resizeParent=1;resizeParentMax=0;resizeLast=0;collapsible=1;marginBottom=0;" parent="1" vertex="1">
                    <mxGeometry x="440" y="640" width="160" height="152" as="geometry"/>
                </mxCell>
                <mxCell id="xLHPYMrKe80LzgOzbX_y-188" value="" style="line;strokeWidth=1;fillColor=none;align=left;verticalAlign=middle;spacingTop=-1;spacingLeft=3;spacingRight=3;rotatable=0;labelPosition=right;points=[];portConstraint=eastwest;" parent="xLHPYMrKe80LzgOzbX_y-183" vertex="1">
                    <mxGeometry y="40" width="160" height="8" as="geometry"/>
                </mxCell>
                <mxCell id="xLHPYMrKe80LzgOzbX_y-189" value="+ getAtaque(): int" style="text;strokeColor=none;fillColor=none;align=left;verticalAlign=top;spacingLeft=4;spacingRight=4;overflow=hidden;rotatable=0;points=[[0,0.5],[1,0.5]];portConstraint=eastwest;" parent="xLHPYMrKe80LzgOzbX_y-183" vertex="1">
                    <mxGeometry y="48" width="160" height="26" as="geometry"/>
                </mxCell>
                <mxCell id="xLHPYMrKe80LzgOzbX_y-190" value="+ getDefensa(): int" style="text;strokeColor=none;fillColor=none;align=left;verticalAlign=top;spacingLeft=4;spacingRight=4;overflow=hidden;rotatable=0;points=[[0,0.5],[1,0.5]];portConstraint=eastwest;" parent="xLHPYMrKe80LzgOzbX_y-183" vertex="1">
                    <mxGeometry y="74" width="160" height="26" as="geometry"/>
                </mxCell>
                <mxCell id="xLHPYMrKe80LzgOzbX_y-191" value="+ getVelocidad(): int" style="text;strokeColor=none;fillColor=none;align=left;verticalAlign=top;spacingLeft=4;spacingRight=4;overflow=hidden;rotatable=0;points=[[0,0.5],[1,0.5]];portConstraint=eastwest;" parent="xLHPYMrKe80LzgOzbX_y-183" vertex="1">
                    <mxGeometry y="100" width="160" height="26" as="geometry"/>
                </mxCell>
                <mxCell id="xLHPYMrKe80LzgOzbX_y-192" value="+ getCosto(): int" style="text;strokeColor=none;fillColor=none;align=left;verticalAlign=top;spacingLeft=4;spacingRight=4;overflow=hidden;rotatable=0;points=[[0,0.5],[1,0.5]];portConstraint=eastwest;" parent="xLHPYMrKe80LzgOzbX_y-183" vertex="1">
                    <mxGeometry y="126" width="160" height="26" as="geometry"/>
                </mxCell>
                <mxCell id="xLHPYMrKe80LzgOzbX_y-193" value="MotorTurbo" style="swimlane;fontStyle=1;align=center;verticalAlign=top;childLayout=stackLayout;horizontal=1;startSize=40;horizontalStack=0;resizeParent=1;resizeParentMax=0;resizeLast=0;collapsible=1;marginBottom=0;" parent="1" vertex="1">
                    <mxGeometry x="640" y="640" width="160" height="152" as="geometry"/>
                </mxCell>
                <mxCell id="xLHPYMrKe80LzgOzbX_y-198" value="" style="line;strokeWidth=1;fillColor=none;align=left;verticalAlign=middle;spacingTop=-1;spacingLeft=3;spacingRight=3;rotatable=0;labelPosition=right;points=[];portConstraint=eastwest;" parent="xLHPYMrKe80LzgOzbX_y-193" vertex="1">
                    <mxGeometry y="40" width="160" height="8" as="geometry"/>
                </mxCell>
                <mxCell id="xLHPYMrKe80LzgOzbX_y-199" value="+ getAtaque(): int" style="text;strokeColor=none;fillColor=none;align=left;verticalAlign=top;spacingLeft=4;spacingRight=4;overflow=hidden;rotatable=0;points=[[0,0.5],[1,0.5]];portConstraint=eastwest;" parent="xLHPYMrKe80LzgOzbX_y-193" vertex="1">
                    <mxGeometry y="48" width="160" height="26" as="geometry"/>
                </mxCell>
                <mxCell id="xLHPYMrKe80LzgOzbX_y-200" value="+ getDefensa(): int" style="text;strokeColor=none;fillColor=none;align=left;verticalAlign=top;spacingLeft=4;spacingRight=4;overflow=hidden;rotatable=0;points=[[0,0.5],[1,0.5]];portConstraint=eastwest;" parent="xLHPYMrKe80LzgOzbX_y-193" vertex="1">
                    <mxGeometry y="74" width="160" height="26" as="geometry"/>
                </mxCell>
                <mxCell id="xLHPYMrKe80LzgOzbX_y-201" value="+ getVelocidad(): int" style="text;strokeColor=none;fillColor=none;align=left;verticalAlign=top;spacingLeft=4;spacingRight=4;overflow=hidden;rotatable=0;points=[[0,0.5],[1,0.5]];portConstraint=eastwest;" parent="xLHPYMrKe80LzgOzbX_y-193" vertex="1">
                    <mxGeometry y="100" width="160" height="26" as="geometry"/>
                </mxCell>
                <mxCell id="xLHPYMrKe80LzgOzbX_y-202" value="+ getCosto(): int" style="text;strokeColor=none;fillColor=none;align=left;verticalAlign=top;spacingLeft=4;spacingRight=4;overflow=hidden;rotatable=0;points=[[0,0.5],[1,0.5]];portConstraint=eastwest;" parent="xLHPYMrKe80LzgOzbX_y-193" vertex="1">
                    <mxGeometry y="126" width="160" height="26" as="geometry"/>
                </mxCell>
                <mxCell id="xLHPYMrKe80LzgOzbX_y-203" value="CarroceriaCasual" style="swimlane;fontStyle=1;align=center;verticalAlign=top;childLayout=stackLayout;horizontal=1;startSize=40;horizontalStack=0;resizeParent=1;resizeParentMax=0;resizeLast=0;collapsible=1;marginBottom=0;" parent="1" vertex="1">
                    <mxGeometry x="240" y="1040" width="160" height="152" as="geometry"/>
                </mxCell>
                <mxCell id="xLHPYMrKe80LzgOzbX_y-208" value="" style="line;strokeWidth=1;fillColor=none;align=left;verticalAlign=middle;spacingTop=-1;spacingLeft=3;spacingRight=3;rotatable=0;labelPosition=right;points=[];portConstraint=eastwest;" parent="xLHPYMrKe80LzgOzbX_y-203" vertex="1">
                    <mxGeometry y="40" width="160" height="8" as="geometry"/>
                </mxCell>
                <mxCell id="xLHPYMrKe80LzgOzbX_y-209" value="+ getAtaque(): int" style="text;strokeColor=none;fillColor=none;align=left;verticalAlign=top;spacingLeft=4;spacingRight=4;overflow=hidden;rotatable=0;points=[[0,0.5],[1,0.5]];portConstraint=eastwest;" parent="xLHPYMrKe80LzgOzbX_y-203" vertex="1">
                    <mxGeometry y="48" width="160" height="26" as="geometry"/>
                </mxCell>
                <mxCell id="xLHPYMrKe80LzgOzbX_y-210" value="+ getDefensa(): int" style="text;strokeColor=none;fillColor=none;align=left;verticalAlign=top;spacingLeft=4;spacingRight=4;overflow=hidden;rotatable=0;points=[[0,0.5],[1,0.5]];portConstraint=eastwest;" parent="xLHPYMrKe80LzgOzbX_y-203" vertex="1">
                    <mxGeometry y="74" width="160" height="26" as="geometry"/>
                </mxCell>
                <mxCell id="xLHPYMrKe80LzgOzbX_y-211" value="+ getVelocidad(): int" style="text;strokeColor=none;fillColor=none;align=left;verticalAlign=top;spacingLeft=4;spacingRight=4;overflow=hidden;rotatable=0;points=[[0,0.5],[1,0.5]];portConstraint=eastwest;" parent="xLHPYMrKe80LzgOzbX_y-203" vertex="1">
                    <mxGeometry y="100" width="160" height="26" as="geometry"/>
                </mxCell>
                <mxCell id="xLHPYMrKe80LzgOzbX_y-212" value="+ getCosto(): int" style="text;strokeColor=none;fillColor=none;align=left;verticalAlign=top;spacingLeft=4;spacingRight=4;overflow=hidden;rotatable=0;points=[[0,0.5],[1,0.5]];portConstraint=eastwest;" parent="xLHPYMrKe80LzgOzbX_y-203" vertex="1">
                    <mxGeometry y="126" width="160" height="26" as="geometry"/>
                </mxCell>
                <mxCell id="xLHPYMrKe80LzgOzbX_y-213" value="CarroceriaCamion" style="swimlane;fontStyle=1;align=center;verticalAlign=top;childLayout=stackLayout;horizontal=1;startSize=40;horizontalStack=0;resizeParent=1;resizeParentMax=0;resizeLast=0;collapsible=1;marginBottom=0;" parent="1" vertex="1">
                    <mxGeometry x="440" y="1040" width="160" height="152" as="geometry"/>
                </mxCell>
                <mxCell id="xLHPYMrKe80LzgOzbX_y-218" value="" style="line;strokeWidth=1;fillColor=none;align=left;verticalAlign=middle;spacingTop=-1;spacingLeft=3;spacingRight=3;rotatable=0;labelPosition=right;points=[];portConstraint=eastwest;" parent="xLHPYMrKe80LzgOzbX_y-213" vertex="1">
                    <mxGeometry y="40" width="160" height="8" as="geometry"/>
                </mxCell>
                <mxCell id="xLHPYMrKe80LzgOzbX_y-219" value="+ getAtaque(): int" style="text;strokeColor=none;fillColor=none;align=left;verticalAlign=top;spacingLeft=4;spacingRight=4;overflow=hidden;rotatable=0;points=[[0,0.5],[1,0.5]];portConstraint=eastwest;" parent="xLHPYMrKe80LzgOzbX_y-213" vertex="1">
                    <mxGeometry y="48" width="160" height="26" as="geometry"/>
                </mxCell>
                <mxCell id="xLHPYMrKe80LzgOzbX_y-220" value="+ getDefensa(): int" style="text;strokeColor=none;fillColor=none;align=left;verticalAlign=top;spacingLeft=4;spacingRight=4;overflow=hidden;rotatable=0;points=[[0,0.5],[1,0.5]];portConstraint=eastwest;" parent="xLHPYMrKe80LzgOzbX_y-213" vertex="1">
                    <mxGeometry y="74" width="160" height="26" as="geometry"/>
                </mxCell>
                <mxCell id="xLHPYMrKe80LzgOzbX_y-221" value="+ getVelocidad(): int" style="text;strokeColor=none;fillColor=none;align=left;verticalAlign=top;spacingLeft=4;spacingRight=4;overflow=hidden;rotatable=0;points=[[0,0.5],[1,0.5]];portConstraint=eastwest;" parent="xLHPYMrKe80LzgOzbX_y-213" vertex="1">
                    <mxGeometry y="100" width="160" height="26" as="geometry"/>
                </mxCell>
                <mxCell id="xLHPYMrKe80LzgOzbX_y-222" value="+ getCosto(): int" style="text;strokeColor=none;fillColor=none;align=left;verticalAlign=top;spacingLeft=4;spacingRight=4;overflow=hidden;rotatable=0;points=[[0,0.5],[1,0.5]];portConstraint=eastwest;" parent="xLHPYMrKe80LzgOzbX_y-213" vertex="1">
                    <mxGeometry y="126" width="160" height="26" as="geometry"/>
                </mxCell>
                <mxCell id="xLHPYMrKe80LzgOzbX_y-223" value="CarroceriaDeportiva" style="swimlane;fontStyle=1;align=center;verticalAlign=top;childLayout=stackLayout;horizontal=1;startSize=40;horizontalStack=0;resizeParent=1;resizeParentMax=0;resizeLast=0;collapsible=1;marginBottom=0;" parent="1" vertex="1">
                    <mxGeometry x="640" y="1040" width="160" height="152" as="geometry"/>
                </mxCell>
                <mxCell id="xLHPYMrKe80LzgOzbX_y-228" value="" style="line;strokeWidth=1;fillColor=none;align=left;verticalAlign=middle;spacingTop=-1;spacingLeft=3;spacingRight=3;rotatable=0;labelPosition=right;points=[];portConstraint=eastwest;" parent="xLHPYMrKe80LzgOzbX_y-223" vertex="1">
                    <mxGeometry y="40" width="160" height="8" as="geometry"/>
                </mxCell>
                <mxCell id="xLHPYMrKe80LzgOzbX_y-229" value="+ getAtaque(): int" style="text;strokeColor=none;fillColor=none;align=left;verticalAlign=top;spacingLeft=4;spacingRight=4;overflow=hidden;rotatable=0;points=[[0,0.5],[1,0.5]];portConstraint=eastwest;" parent="xLHPYMrKe80LzgOzbX_y-223" vertex="1">
                    <mxGeometry y="48" width="160" height="26" as="geometry"/>
                </mxCell>
                <mxCell id="xLHPYMrKe80LzgOzbX_y-230" value="+ getDefensa(): int" style="text;strokeColor=none;fillColor=none;align=left;verticalAlign=top;spacingLeft=4;spacingRight=4;overflow=hidden;rotatable=0;points=[[0,0.5],[1,0.5]];portConstraint=eastwest;" parent="xLHPYMrKe80LzgOzbX_y-223" vertex="1">
                    <mxGeometry y="74" width="160" height="26" as="geometry"/>
                </mxCell>
                <mxCell id="xLHPYMrKe80LzgOzbX_y-231" value="+ getVelocidad(): int" style="text;strokeColor=none;fillColor=none;align=left;verticalAlign=top;spacingLeft=4;spacingRight=4;overflow=hidden;rotatable=0;points=[[0,0.5],[1,0.5]];portConstraint=eastwest;" parent="xLHPYMrKe80LzgOzbX_y-223" vertex="1">
                    <mxGeometry y="100" width="160" height="26" as="geometry"/>
                </mxCell>
                <mxCell id="xLHPYMrKe80LzgOzbX_y-232" value="+ getCosto(): int" style="text;strokeColor=none;fillColor=none;align=left;verticalAlign=top;spacingLeft=4;spacingRight=4;overflow=hidden;rotatable=0;points=[[0,0.5],[1,0.5]];portConstraint=eastwest;" parent="xLHPYMrKe80LzgOzbX_y-223" vertex="1">
                    <mxGeometry y="126" width="160" height="26" as="geometry"/>
                </mxCell>
                <mxCell id="xLHPYMrKe80LzgOzbX_y-233" value="BlindajeSimple" style="swimlane;fontStyle=1;align=center;verticalAlign=top;childLayout=stackLayout;horizontal=1;startSize=40;horizontalStack=0;resizeParent=1;resizeParentMax=0;resizeLast=0;collapsible=1;marginBottom=0;" parent="1" vertex="1">
                    <mxGeometry x="240" y="1440" width="160" height="152" as="geometry"/>
                </mxCell>
                <mxCell id="xLHPYMrKe80LzgOzbX_y-238" value="" style="line;strokeWidth=1;fillColor=none;align=left;verticalAlign=middle;spacingTop=-1;spacingLeft=3;spacingRight=3;rotatable=0;labelPosition=right;points=[];portConstraint=eastwest;" parent="xLHPYMrKe80LzgOzbX_y-233" vertex="1">
                    <mxGeometry y="40" width="160" height="8" as="geometry"/>
                </mxCell>
                <mxCell id="xLHPYMrKe80LzgOzbX_y-239" value="+ getAtaque(): int" style="text;strokeColor=none;fillColor=none;align=left;verticalAlign=top;spacingLeft=4;spacingRight=4;overflow=hidden;rotatable=0;points=[[0,0.5],[1,0.5]];portConstraint=eastwest;" parent="xLHPYMrKe80LzgOzbX_y-233" vertex="1">
                    <mxGeometry y="48" width="160" height="26" as="geometry"/>
                </mxCell>
                <mxCell id="xLHPYMrKe80LzgOzbX_y-240" value="+ getDefensa(): int" style="text;strokeColor=none;fillColor=none;align=left;verticalAlign=top;spacingLeft=4;spacingRight=4;overflow=hidden;rotatable=0;points=[[0,0.5],[1,0.5]];portConstraint=eastwest;" parent="xLHPYMrKe80LzgOzbX_y-233" vertex="1">
                    <mxGeometry y="74" width="160" height="26" as="geometry"/>
                </mxCell>
                <mxCell id="xLHPYMrKe80LzgOzbX_y-241" value="+ getVelocidad(): int" style="text;strokeColor=none;fillColor=none;align=left;verticalAlign=top;spacingLeft=4;spacingRight=4;overflow=hidden;rotatable=0;points=[[0,0.5],[1,0.5]];portConstraint=eastwest;" parent="xLHPYMrKe80LzgOzbX_y-233" vertex="1">
                    <mxGeometry y="100" width="160" height="26" as="geometry"/>
                </mxCell>
                <mxCell id="xLHPYMrKe80LzgOzbX_y-242" value="+ getCosto(): int" style="text;strokeColor=none;fillColor=none;align=left;verticalAlign=top;spacingLeft=4;spacingRight=4;overflow=hidden;rotatable=0;points=[[0,0.5],[1,0.5]];portConstraint=eastwest;" parent="xLHPYMrKe80LzgOzbX_y-233" vertex="1">
                    <mxGeometry y="126" width="160" height="26" as="geometry"/>
                </mxCell>
                <mxCell id="xLHPYMrKe80LzgOzbX_y-14" value="&lt;&lt;abstract&gt;&gt;&#10;Llantas" style="swimlane;fontStyle=1;align=center;verticalAlign=top;childLayout=stackLayout;horizontal=1;startSize=36;horizontalStack=0;resizeParent=1;resizeParentMax=0;resizeLast=0;collapsible=1;marginBottom=0;" parent="1" vertex="1">
                    <mxGeometry x="80" y="40" width="160" height="148" as="geometry"/>
                </mxCell>
                <mxCell id="26" value="# ataque: int" style="text;strokeColor=none;fillColor=none;align=left;verticalAlign=top;spacingLeft=4;spacingRight=4;overflow=hidden;rotatable=0;points=[[0,0.5],[1,0.5]];portConstraint=eastwest;" parent="xLHPYMrKe80LzgOzbX_y-14" vertex="1">
                    <mxGeometry y="36" width="160" height="26" as="geometry"/>
                </mxCell>
                <mxCell id="27" value="# defensa: int" style="text;strokeColor=none;fillColor=none;align=left;verticalAlign=top;spacingLeft=4;spacingRight=4;overflow=hidden;rotatable=0;points=[[0,0.5],[1,0.5]];portConstraint=eastwest;" parent="xLHPYMrKe80LzgOzbX_y-14" vertex="1">
                    <mxGeometry y="62" width="160" height="26" as="geometry"/>
                </mxCell>
                <mxCell id="28" value="# velocidad: int" style="text;strokeColor=none;fillColor=none;align=left;verticalAlign=top;spacingLeft=4;spacingRight=4;overflow=hidden;rotatable=0;points=[[0,0.5],[1,0.5]];portConstraint=eastwest;" parent="xLHPYMrKe80LzgOzbX_y-14" vertex="1">
                    <mxGeometry y="88" width="160" height="26" as="geometry"/>
                </mxCell>
                <mxCell id="29" value="# costo: int" style="text;strokeColor=none;fillColor=none;align=left;verticalAlign=top;spacingLeft=4;spacingRight=4;overflow=hidden;rotatable=0;points=[[0,0.5],[1,0.5]];portConstraint=eastwest;" parent="xLHPYMrKe80LzgOzbX_y-14" vertex="1">
                    <mxGeometry y="114" width="160" height="26" as="geometry"/>
                </mxCell>
                <mxCell id="xLHPYMrKe80LzgOzbX_y-16" value="" style="line;strokeWidth=1;fillColor=none;align=left;verticalAlign=middle;spacingTop=-1;spacingLeft=3;spacingRight=3;rotatable=0;labelPosition=right;points=[];portConstraint=eastwest;" parent="xLHPYMrKe80LzgOzbX_y-14" vertex="1">
                    <mxGeometry y="140" width="160" height="8" as="geometry"/>
                </mxCell>
                <mxCell id="10" value="LLantasSimple" style="swimlane;fontStyle=1;align=center;verticalAlign=top;childLayout=stackLayout;horizontal=1;startSize=40;horizontalStack=0;resizeParent=1;resizeParentMax=0;resizeLast=0;collapsible=1;marginBottom=0;" parent="1" vertex="1">
                    <mxGeometry x="240" y="240" width="160" height="152" as="geometry"/>
                </mxCell>
                <mxCell id="11" value="" style="line;strokeWidth=1;fillColor=none;align=left;verticalAlign=middle;spacingTop=-1;spacingLeft=3;spacingRight=3;rotatable=0;labelPosition=right;points=[];portConstraint=eastwest;" parent="10" vertex="1">
                    <mxGeometry y="40" width="160" height="8" as="geometry"/>
                </mxCell>
                <mxCell id="12" value="+ getAtaque(): int" style="text;strokeColor=none;fillColor=none;align=left;verticalAlign=top;spacingLeft=4;spacingRight=4;overflow=hidden;rotatable=0;points=[[0,0.5],[1,0.5]];portConstraint=eastwest;" parent="10" vertex="1">
                    <mxGeometry y="48" width="160" height="26" as="geometry"/>
                </mxCell>
                <mxCell id="13" value="+ getDefensa(): int" style="text;strokeColor=none;fillColor=none;align=left;verticalAlign=top;spacingLeft=4;spacingRight=4;overflow=hidden;rotatable=0;points=[[0,0.5],[1,0.5]];portConstraint=eastwest;" parent="10" vertex="1">
                    <mxGeometry y="74" width="160" height="26" as="geometry"/>
                </mxCell>
                <mxCell id="14" value="+ getVelocidad(): int" style="text;strokeColor=none;fillColor=none;align=left;verticalAlign=top;spacingLeft=4;spacingRight=4;overflow=hidden;rotatable=0;points=[[0,0.5],[1,0.5]];portConstraint=eastwest;" parent="10" vertex="1">
                    <mxGeometry y="100" width="160" height="26" as="geometry"/>
                </mxCell>
                <mxCell id="15" value="+ getCosto(): int" style="text;strokeColor=none;fillColor=none;align=left;verticalAlign=top;spacingLeft=4;spacingRight=4;overflow=hidden;rotatable=0;points=[[0,0.5],[1,0.5]];portConstraint=eastwest;" parent="10" vertex="1">
                    <mxGeometry y="126" width="160" height="26" as="geometry"/>
                </mxCell>
                <mxCell id="xLHPYMrKe80LzgOzbX_y-143" value="LlantasDeportiva" style="swimlane;fontStyle=1;align=center;verticalAlign=top;childLayout=stackLayout;horizontal=1;startSize=40;horizontalStack=0;resizeParent=1;resizeParentMax=0;resizeLast=0;collapsible=1;marginBottom=0;" parent="1" vertex="1">
                    <mxGeometry x="440" y="240" width="160" height="152" as="geometry"/>
                </mxCell>
                <mxCell id="xLHPYMrKe80LzgOzbX_y-148" value="" style="line;strokeWidth=1;fillColor=none;align=left;verticalAlign=middle;spacingTop=-1;spacingLeft=3;spacingRight=3;rotatable=0;labelPosition=right;points=[];portConstraint=eastwest;" parent="xLHPYMrKe80LzgOzbX_y-143" vertex="1">
                    <mxGeometry y="40" width="160" height="8" as="geometry"/>
                </mxCell>
                <mxCell id="xLHPYMrKe80LzgOzbX_y-149" value="+ getAtaque(): int" style="text;strokeColor=none;fillColor=none;align=left;verticalAlign=top;spacingLeft=4;spacingRight=4;overflow=hidden;rotatable=0;points=[[0,0.5],[1,0.5]];portConstraint=eastwest;" parent="xLHPYMrKe80LzgOzbX_y-143" vertex="1">
                    <mxGeometry y="48" width="160" height="26" as="geometry"/>
                </mxCell>
                <mxCell id="xLHPYMrKe80LzgOzbX_y-150" value="+ getDefensa(): int" style="text;strokeColor=none;fillColor=none;align=left;verticalAlign=top;spacingLeft=4;spacingRight=4;overflow=hidden;rotatable=0;points=[[0,0.5],[1,0.5]];portConstraint=eastwest;" parent="xLHPYMrKe80LzgOzbX_y-143" vertex="1">
                    <mxGeometry y="74" width="160" height="26" as="geometry"/>
                </mxCell>
                <mxCell id="xLHPYMrKe80LzgOzbX_y-151" value="+ getVelocidad(): int" style="text;strokeColor=none;fillColor=none;align=left;verticalAlign=top;spacingLeft=4;spacingRight=4;overflow=hidden;rotatable=0;points=[[0,0.5],[1,0.5]];portConstraint=eastwest;" parent="xLHPYMrKe80LzgOzbX_y-143" vertex="1">
                    <mxGeometry y="100" width="160" height="26" as="geometry"/>
                </mxCell>
                <mxCell id="xLHPYMrKe80LzgOzbX_y-152" value="+ getCosto(): int" style="text;strokeColor=none;fillColor=none;align=left;verticalAlign=top;spacingLeft=4;spacingRight=4;overflow=hidden;rotatable=0;points=[[0,0.5],[1,0.5]];portConstraint=eastwest;" parent="xLHPYMrKe80LzgOzbX_y-143" vertex="1">
                    <mxGeometry y="126" width="160" height="26" as="geometry"/>
                </mxCell>
                <mxCell id="xLHPYMrKe80LzgOzbX_y-153" value="LLantasOff-road" style="swimlane;fontStyle=1;align=center;verticalAlign=top;childLayout=stackLayout;horizontal=1;startSize=40;horizontalStack=0;resizeParent=1;resizeParentMax=0;resizeLast=0;collapsible=1;marginBottom=0;" parent="1" vertex="1">
                    <mxGeometry x="644" y="240" width="160" height="152" as="geometry"/>
                </mxCell>
                <mxCell id="xLHPYMrKe80LzgOzbX_y-158" value="" style="line;strokeWidth=1;fillColor=none;align=left;verticalAlign=middle;spacingTop=-1;spacingLeft=3;spacingRight=3;rotatable=0;labelPosition=right;points=[];portConstraint=eastwest;" parent="xLHPYMrKe80LzgOzbX_y-153" vertex="1">
                    <mxGeometry y="40" width="160" height="8" as="geometry"/>
                </mxCell>
                <mxCell id="xLHPYMrKe80LzgOzbX_y-159" value="+ getAtaque(): int" style="text;strokeColor=none;fillColor=none;align=left;verticalAlign=top;spacingLeft=4;spacingRight=4;overflow=hidden;rotatable=0;points=[[0,0.5],[1,0.5]];portConstraint=eastwest;" parent="xLHPYMrKe80LzgOzbX_y-153" vertex="1">
                    <mxGeometry y="48" width="160" height="26" as="geometry"/>
                </mxCell>
                <mxCell id="xLHPYMrKe80LzgOzbX_y-160" value="+ getDefensa(): int" style="text;strokeColor=none;fillColor=none;align=left;verticalAlign=top;spacingLeft=4;spacingRight=4;overflow=hidden;rotatable=0;points=[[0,0.5],[1,0.5]];portConstraint=eastwest;" parent="xLHPYMrKe80LzgOzbX_y-153" vertex="1">
                    <mxGeometry y="74" width="160" height="26" as="geometry"/>
                </mxCell>
                <mxCell id="xLHPYMrKe80LzgOzbX_y-161" value="+ getVelocidad(): int" style="text;strokeColor=none;fillColor=none;align=left;verticalAlign=top;spacingLeft=4;spacingRight=4;overflow=hidden;rotatable=0;points=[[0,0.5],[1,0.5]];portConstraint=eastwest;" parent="xLHPYMrKe80LzgOzbX_y-153" vertex="1">
                    <mxGeometry y="100" width="160" height="26" as="geometry"/>
                </mxCell>
                <mxCell id="xLHPYMrKe80LzgOzbX_y-162" value="+ getCosto(): int" style="text;strokeColor=none;fillColor=none;align=left;verticalAlign=top;spacingLeft=4;spacingRight=4;overflow=hidden;rotatable=0;points=[[0,0.5],[1,0.5]];portConstraint=eastwest;" parent="xLHPYMrKe80LzgOzbX_y-153" vertex="1">
                    <mxGeometry y="126" width="160" height="26" as="geometry"/>
                </mxCell>
                <mxCell id="xLHPYMrKe80LzgOzbX_y-163" value="LLantasOrugaDeTanque" style="swimlane;fontStyle=1;align=center;verticalAlign=top;childLayout=stackLayout;horizontal=1;startSize=40;horizontalStack=0;resizeParent=1;resizeParentMax=0;resizeLast=0;collapsible=1;marginBottom=0;" parent="1" vertex="1">
                    <mxGeometry x="840" y="240" width="160" height="152" as="geometry"/>
                </mxCell>
                <mxCell id="xLHPYMrKe80LzgOzbX_y-168" value="" style="line;strokeWidth=1;fillColor=none;align=left;verticalAlign=middle;spacingTop=-1;spacingLeft=3;spacingRight=3;rotatable=0;labelPosition=right;points=[];portConstraint=eastwest;" parent="xLHPYMrKe80LzgOzbX_y-163" vertex="1">
                    <mxGeometry y="40" width="160" height="8" as="geometry"/>
                </mxCell>
                <mxCell id="xLHPYMrKe80LzgOzbX_y-169" value="+ getAtaque(): int" style="text;strokeColor=none;fillColor=none;align=left;verticalAlign=top;spacingLeft=4;spacingRight=4;overflow=hidden;rotatable=0;points=[[0,0.5],[1,0.5]];portConstraint=eastwest;" parent="xLHPYMrKe80LzgOzbX_y-163" vertex="1">
                    <mxGeometry y="48" width="160" height="26" as="geometry"/>
                </mxCell>
                <mxCell id="xLHPYMrKe80LzgOzbX_y-170" value="+ getDefensa(): int" style="text;strokeColor=none;fillColor=none;align=left;verticalAlign=top;spacingLeft=4;spacingRight=4;overflow=hidden;rotatable=0;points=[[0,0.5],[1,0.5]];portConstraint=eastwest;" parent="xLHPYMrKe80LzgOzbX_y-163" vertex="1">
                    <mxGeometry y="74" width="160" height="26" as="geometry"/>
                </mxCell>
                <mxCell id="xLHPYMrKe80LzgOzbX_y-171" value="+ getVelocidad(): int" style="text;strokeColor=none;fillColor=none;align=left;verticalAlign=top;spacingLeft=4;spacingRight=4;overflow=hidden;rotatable=0;points=[[0,0.5],[1,0.5]];portConstraint=eastwest;" parent="xLHPYMrKe80LzgOzbX_y-163" vertex="1">
                    <mxGeometry y="100" width="160" height="26" as="geometry"/>
                </mxCell>
                <mxCell id="xLHPYMrKe80LzgOzbX_y-172" value="+ getCosto(): int" style="text;strokeColor=none;fillColor=none;align=left;verticalAlign=top;spacingLeft=4;spacingRight=4;overflow=hidden;rotatable=0;points=[[0,0.5],[1,0.5]];portConstraint=eastwest;" parent="xLHPYMrKe80LzgOzbX_y-163" vertex="1">
                    <mxGeometry y="126" width="160" height="26" as="geometry"/>
                </mxCell>
                <mxCell id="49" value="&lt;&lt;abstract&gt;&gt;&#10;Armas" style="swimlane;fontStyle=1;align=center;verticalAlign=top;childLayout=stackLayout;horizontal=1;startSize=38;horizontalStack=0;resizeParent=1;resizeParentMax=0;resizeLast=0;collapsible=1;marginBottom=0;" parent="1" vertex="1">
                    <mxGeometry x="80" y="1640" width="160" height="150" as="geometry"/>
                </mxCell>
                <mxCell id="50" value="# ataque: int" style="text;strokeColor=none;fillColor=none;align=left;verticalAlign=top;spacingLeft=4;spacingRight=4;overflow=hidden;rotatable=0;points=[[0,0.5],[1,0.5]];portConstraint=eastwest;" parent="49" vertex="1">
                    <mxGeometry y="38" width="160" height="26" as="geometry"/>
                </mxCell>
                <mxCell id="51" value="# defensa: int" style="text;strokeColor=none;fillColor=none;align=left;verticalAlign=top;spacingLeft=4;spacingRight=4;overflow=hidden;rotatable=0;points=[[0,0.5],[1,0.5]];portConstraint=eastwest;" parent="49" vertex="1">
                    <mxGeometry y="64" width="160" height="26" as="geometry"/>
                </mxCell>
                <mxCell id="52" value="# velocidad: int" style="text;strokeColor=none;fillColor=none;align=left;verticalAlign=top;spacingLeft=4;spacingRight=4;overflow=hidden;rotatable=0;points=[[0,0.5],[1,0.5]];portConstraint=eastwest;" parent="49" vertex="1">
                    <mxGeometry y="90" width="160" height="26" as="geometry"/>
                </mxCell>
                <mxCell id="53" value="# costo: int" style="text;strokeColor=none;fillColor=none;align=left;verticalAlign=top;spacingLeft=4;spacingRight=4;overflow=hidden;rotatable=0;points=[[0,0.5],[1,0.5]];portConstraint=eastwest;" parent="49" vertex="1">
                    <mxGeometry y="116" width="160" height="26" as="geometry"/>
                </mxCell>
                <mxCell id="54" value="" style="line;strokeWidth=1;fillColor=none;align=left;verticalAlign=middle;spacingTop=-1;spacingLeft=3;spacingRight=3;rotatable=0;labelPosition=right;points=[];portConstraint=eastwest;" parent="49" vertex="1">
                    <mxGeometry y="142" width="160" height="8" as="geometry"/>
                </mxCell>
                <mxCell id="55" value="" style="endArrow=block;dashed=1;endFill=0;endSize=12;html=1;exitX=0;exitY=0;exitDx=0;exitDy=0;entryX=1;entryY=0;entryDx=0;entryDy=0;edgeStyle=elbowEdgeStyle;" parent="1" source="xLHPYMrKe80LzgOzbX_y-14" target="xLHPYMrKe80LzgOzbX_y-106" edge="1">
                    <mxGeometry width="160" relative="1" as="geometry">
                        <mxPoint x="290" y="30" as="sourcePoint"/>
                        <mxPoint x="610" y="30" as="targetPoint"/>
                        <Array as="points">
                            <mxPoint x="30" y="20"/>
                            <mxPoint x="30" y="36"/>
                        </Array>
                    </mxGeometry>
                </mxCell>
                <mxCell id="56" value="" style="endArrow=block;dashed=1;endFill=0;endSize=12;html=1;exitX=0;exitY=0;exitDx=0;exitDy=0;entryX=1;entryY=0;entryDx=0;entryDy=0;edgeStyle=elbowEdgeStyle;" parent="1" source="30" target="xLHPYMrKe80LzgOzbX_y-106" edge="1">
                    <mxGeometry width="160" relative="1" as="geometry">
                        <mxPoint x="-30" y="344.0000000000002" as="sourcePoint"/>
                        <mxPoint x="-100" y="209.99999999999977" as="targetPoint"/>
                        <Array as="points">
                            <mxPoint x="30" y="120"/>
                        </Array>
                    </mxGeometry>
                </mxCell>
                <mxCell id="57" value="" style="endArrow=block;dashed=1;endFill=0;endSize=12;html=1;exitX=0;exitY=0;exitDx=0;exitDy=0;entryX=1;entryY=0;entryDx=0;entryDy=0;edgeStyle=elbowEdgeStyle;" parent="1" source="36" target="xLHPYMrKe80LzgOzbX_y-106" edge="1">
                    <mxGeometry width="160" relative="1" as="geometry">
                        <mxPoint x="90" y="114.00000000000023" as="sourcePoint"/>
                        <mxPoint x="20" y="-20.000000000000227" as="targetPoint"/>
                        <Array as="points">
                            <mxPoint x="30" y="110"/>
                            <mxPoint x="26" y="650"/>
                        </Array>
                    </mxGeometry>
                </mxCell>
                <mxCell id="58" value="" style="endArrow=block;dashed=1;endFill=0;endSize=12;html=1;exitX=0;exitY=0;exitDx=0;exitDy=0;entryX=1;entryY=0;entryDx=0;entryDy=0;edgeStyle=elbowEdgeStyle;" parent="1" source="43" target="xLHPYMrKe80LzgOzbX_y-106" edge="1">
                    <mxGeometry width="160" relative="1" as="geometry">
                        <mxPoint x="100" y="124.00000000000023" as="sourcePoint"/>
                        <mxPoint x="30" y="-10.000000000000227" as="targetPoint"/>
                        <Array as="points">
                            <mxPoint x="30" y="100"/>
                        </Array>
                    </mxGeometry>
                </mxCell>
                <mxCell id="59" value="" style="endArrow=block;dashed=1;endFill=0;endSize=12;html=1;exitX=0;exitY=0;exitDx=0;exitDy=0;entryX=1;entryY=0;entryDx=0;entryDy=0;edgeStyle=elbowEdgeStyle;" parent="1" source="49" target="xLHPYMrKe80LzgOzbX_y-106" edge="1">
                    <mxGeometry width="160" relative="1" as="geometry">
                        <mxPoint x="110" y="134.00000000000023" as="sourcePoint"/>
                        <mxPoint x="40" y="-2.2737367544323206e-13" as="targetPoint"/>
                        <Array as="points">
                            <mxPoint x="30" y="1690"/>
                        </Array>
                    </mxGeometry>
                </mxCell>
                <mxCell id="30" value="&lt;&lt;abstract&gt;&gt;&#10;Motor" style="swimlane;fontStyle=1;align=center;verticalAlign=top;childLayout=stackLayout;horizontal=1;startSize=37;horizontalStack=0;resizeParent=1;resizeParentMax=0;resizeLast=0;collapsible=1;marginBottom=0;" parent="1" vertex="1">
                    <mxGeometry x="80" y="440" width="160" height="149" as="geometry"/>
                </mxCell>
                <mxCell id="31" value="# ataque: int" style="text;strokeColor=none;fillColor=none;align=left;verticalAlign=top;spacingLeft=4;spacingRight=4;overflow=hidden;rotatable=0;points=[[0,0.5],[1,0.5]];portConstraint=eastwest;" parent="30" vertex="1">
                    <mxGeometry y="37" width="160" height="26" as="geometry"/>
                </mxCell>
                <mxCell id="32" value="# defensa: int" style="text;strokeColor=none;fillColor=none;align=left;verticalAlign=top;spacingLeft=4;spacingRight=4;overflow=hidden;rotatable=0;points=[[0,0.5],[1,0.5]];portConstraint=eastwest;" parent="30" vertex="1">
                    <mxGeometry y="63" width="160" height="26" as="geometry"/>
                </mxCell>
                <mxCell id="33" value="# velocidad: int" style="text;strokeColor=none;fillColor=none;align=left;verticalAlign=top;spacingLeft=4;spacingRight=4;overflow=hidden;rotatable=0;points=[[0,0.5],[1,0.5]];portConstraint=eastwest;" parent="30" vertex="1">
                    <mxGeometry y="89" width="160" height="26" as="geometry"/>
                </mxCell>
                <mxCell id="34" value="# costo: int" style="text;strokeColor=none;fillColor=none;align=left;verticalAlign=top;spacingLeft=4;spacingRight=4;overflow=hidden;rotatable=0;points=[[0,0.5],[1,0.5]];portConstraint=eastwest;" parent="30" vertex="1">
                    <mxGeometry y="115" width="160" height="26" as="geometry"/>
                </mxCell>
                <mxCell id="35" value="" style="line;strokeWidth=1;fillColor=none;align=left;verticalAlign=middle;spacingTop=-1;spacingLeft=3;spacingRight=3;rotatable=0;labelPosition=right;points=[];portConstraint=eastwest;" parent="30" vertex="1">
                    <mxGeometry y="141" width="160" height="8" as="geometry"/>
                </mxCell>
                <mxCell id="36" value="&lt;&lt;abstract&gt;&gt;&#10;Carrocería" style="swimlane;fontStyle=1;align=center;verticalAlign=top;childLayout=stackLayout;horizontal=1;startSize=36;horizontalStack=0;resizeParent=1;resizeParentMax=0;resizeLast=0;collapsible=1;marginBottom=0;" parent="1" vertex="1">
                    <mxGeometry x="80" y="840" width="160" height="148" as="geometry"/>
                </mxCell>
                <mxCell id="37" value="# ataque: int" style="text;strokeColor=none;fillColor=none;align=left;verticalAlign=top;spacingLeft=4;spacingRight=4;overflow=hidden;rotatable=0;points=[[0,0.5],[1,0.5]];portConstraint=eastwest;" parent="36" vertex="1">
                    <mxGeometry y="36" width="160" height="26" as="geometry"/>
                </mxCell>
                <mxCell id="38" value="# defensa: int" style="text;strokeColor=none;fillColor=none;align=left;verticalAlign=top;spacingLeft=4;spacingRight=4;overflow=hidden;rotatable=0;points=[[0,0.5],[1,0.5]];portConstraint=eastwest;" parent="36" vertex="1">
                    <mxGeometry y="62" width="160" height="26" as="geometry"/>
                </mxCell>
                <mxCell id="39" value="# velocidad: int" style="text;strokeColor=none;fillColor=none;align=left;verticalAlign=top;spacingLeft=4;spacingRight=4;overflow=hidden;rotatable=0;points=[[0,0.5],[1,0.5]];portConstraint=eastwest;" parent="36" vertex="1">
                    <mxGeometry y="88" width="160" height="26" as="geometry"/>
                </mxCell>
                <mxCell id="40" value="# costo: int" style="text;strokeColor=none;fillColor=none;align=left;verticalAlign=top;spacingLeft=4;spacingRight=4;overflow=hidden;rotatable=0;points=[[0,0.5],[1,0.5]];portConstraint=eastwest;" parent="36" vertex="1">
                    <mxGeometry y="114" width="160" height="26" as="geometry"/>
                </mxCell>
                <mxCell id="41" value="" style="line;strokeWidth=1;fillColor=none;align=left;verticalAlign=middle;spacingTop=-1;spacingLeft=3;spacingRight=3;rotatable=0;labelPosition=right;points=[];portConstraint=eastwest;" parent="36" vertex="1">
                    <mxGeometry y="140" width="160" height="8" as="geometry"/>
                </mxCell>
                <mxCell id="43" value="&lt;&lt;abstract&gt;&gt;&#10;Blindaje" style="swimlane;fontStyle=1;align=center;verticalAlign=top;childLayout=stackLayout;horizontal=1;startSize=38;horizontalStack=0;resizeParent=1;resizeParentMax=0;resizeLast=0;collapsible=1;marginBottom=0;" parent="1" vertex="1">
                    <mxGeometry x="80" y="1240" width="160" height="150" as="geometry"/>
                </mxCell>
                <mxCell id="44" value="# ataque: int" style="text;strokeColor=none;fillColor=none;align=left;verticalAlign=top;spacingLeft=4;spacingRight=4;overflow=hidden;rotatable=0;points=[[0,0.5],[1,0.5]];portConstraint=eastwest;" parent="43" vertex="1">
                    <mxGeometry y="38" width="160" height="26" as="geometry"/>
                </mxCell>
                <mxCell id="45" value="# defensa: int" style="text;strokeColor=none;fillColor=none;align=left;verticalAlign=top;spacingLeft=4;spacingRight=4;overflow=hidden;rotatable=0;points=[[0,0.5],[1,0.5]];portConstraint=eastwest;" parent="43" vertex="1">
                    <mxGeometry y="64" width="160" height="26" as="geometry"/>
                </mxCell>
                <mxCell id="46" value="# velocidad: int" style="text;strokeColor=none;fillColor=none;align=left;verticalAlign=top;spacingLeft=4;spacingRight=4;overflow=hidden;rotatable=0;points=[[0,0.5],[1,0.5]];portConstraint=eastwest;" parent="43" vertex="1">
                    <mxGeometry y="90" width="160" height="26" as="geometry"/>
                </mxCell>
                <mxCell id="47" value="# costo: int" style="text;strokeColor=none;fillColor=none;align=left;verticalAlign=top;spacingLeft=4;spacingRight=4;overflow=hidden;rotatable=0;points=[[0,0.5],[1,0.5]];portConstraint=eastwest;" parent="43" vertex="1">
                    <mxGeometry y="116" width="160" height="26" as="geometry"/>
                </mxCell>
                <mxCell id="48" value="" style="line;strokeWidth=1;fillColor=none;align=left;verticalAlign=middle;spacingTop=-1;spacingLeft=3;spacingRight=3;rotatable=0;labelPosition=right;points=[];portConstraint=eastwest;" parent="43" vertex="1">
                    <mxGeometry y="142" width="160" height="8" as="geometry"/>
                </mxCell>
                <mxCell id="60" value="Extends" style="endArrow=block;endSize=16;endFill=0;html=1;entryX=1;entryY=0;entryDx=0;entryDy=0;exitX=0.5;exitY=0;exitDx=0;exitDy=0;edgeStyle=elbowEdgeStyle;" parent="1" source="10" target="xLHPYMrKe80LzgOzbX_y-14" edge="1">
                    <mxGeometry x="-0.1143" width="160" relative="1" as="geometry">
                        <mxPoint x="500" y="170" as="sourcePoint"/>
                        <mxPoint x="660" y="170" as="targetPoint"/>
                        <Array as="points">
                            <mxPoint x="320" y="140"/>
                        </Array>
                        <mxPoint as="offset"/>
                    </mxGeometry>
                </mxCell>
                <mxCell id="61" value="Extends" style="endArrow=block;endSize=16;endFill=0;html=1;entryX=1;entryY=0;entryDx=0;entryDy=0;edgeStyle=elbowEdgeStyle;exitX=0.5;exitY=0;exitDx=0;exitDy=0;" parent="1" source="xLHPYMrKe80LzgOzbX_y-143" target="xLHPYMrKe80LzgOzbX_y-14" edge="1">
                    <mxGeometry x="-0.4833" width="160" relative="1" as="geometry">
                        <mxPoint x="520" y="240" as="sourcePoint"/>
                        <mxPoint x="249.99999999999955" y="50" as="targetPoint"/>
                        <Array as="points">
                            <mxPoint x="520" y="120"/>
                            <mxPoint x="330" y="150"/>
                        </Array>
                        <mxPoint as="offset"/>
                    </mxGeometry>
                </mxCell>
                <mxCell id="62" value="Extends" style="endArrow=block;endSize=16;endFill=0;html=1;entryX=1;entryY=0;entryDx=0;entryDy=0;exitX=0.5;exitY=0;exitDx=0;exitDy=0;edgeStyle=elbowEdgeStyle;" parent="1" source="xLHPYMrKe80LzgOzbX_y-153" target="xLHPYMrKe80LzgOzbX_y-14" edge="1">
                    <mxGeometry x="-0.6374" width="160" relative="1" as="geometry">
                        <mxPoint x="340" y="260" as="sourcePoint"/>
                        <mxPoint x="259.99999999999955" y="60" as="targetPoint"/>
                        <Array as="points">
                            <mxPoint x="724" y="180"/>
                            <mxPoint x="340" y="160"/>
                        </Array>
                        <mxPoint as="offset"/>
                    </mxGeometry>
                </mxCell>
                <mxCell id="63" value="Extends" style="endArrow=block;endSize=16;endFill=0;html=1;entryX=1;entryY=0;entryDx=0;entryDy=0;exitX=0.5;exitY=0;exitDx=0;exitDy=0;edgeStyle=elbowEdgeStyle;" parent="1" source="xLHPYMrKe80LzgOzbX_y-163" target="xLHPYMrKe80LzgOzbX_y-14" edge="1">
                    <mxGeometry x="-0.7182" width="160" relative="1" as="geometry">
                        <mxPoint x="350" y="270" as="sourcePoint"/>
                        <mxPoint x="269.99999999999955" y="70" as="targetPoint"/>
                        <Array as="points">
                            <mxPoint x="920" y="180"/>
                            <mxPoint x="350" y="170"/>
                        </Array>
                        <mxPoint as="offset"/>
                    </mxGeometry>
                </mxCell>
                <mxCell id="64" value="Extends" style="endArrow=block;endSize=16;endFill=0;html=1;entryX=1;entryY=0;entryDx=0;entryDy=0;exitX=0.5;exitY=0;exitDx=0;exitDy=0;edgeStyle=elbowEdgeStyle;" parent="1" source="xLHPYMrKe80LzgOzbX_y-173" target="30" edge="1">
                    <mxGeometry x="-0.1143" width="160" relative="1" as="geometry">
                        <mxPoint x="340" y="630" as="sourcePoint"/>
                        <mxPoint x="259.99999999999955" y="430" as="targetPoint"/>
                        <Array as="points">
                            <mxPoint x="320" y="580"/>
                            <mxPoint x="340" y="530"/>
                        </Array>
                        <mxPoint as="offset"/>
                    </mxGeometry>
                </mxCell>
                <mxCell id="65" value="Extends" style="endArrow=block;endSize=16;endFill=0;html=1;entryX=1;entryY=0;entryDx=0;entryDy=0;exitX=0.5;exitY=0;exitDx=0;exitDy=0;edgeStyle=elbowEdgeStyle;" parent="1" source="xLHPYMrKe80LzgOzbX_y-183" target="30" edge="1">
                    <mxGeometry x="-0.4833" width="160" relative="1" as="geometry">
                        <mxPoint x="530" y="620" as="sourcePoint"/>
                        <mxPoint x="449.99999999999955" y="420" as="targetPoint"/>
                        <Array as="points">
                            <mxPoint x="520" y="570"/>
                            <mxPoint x="530" y="520"/>
                        </Array>
                        <mxPoint as="offset"/>
                    </mxGeometry>
                </mxCell>
                <mxCell id="66" value="Extends" style="endArrow=block;endSize=16;endFill=0;html=1;entryX=1;entryY=0;entryDx=0;entryDy=0;exitX=0.5;exitY=0;exitDx=0;exitDy=0;edgeStyle=elbowEdgeStyle;" parent="1" source="xLHPYMrKe80LzgOzbX_y-193" target="30" edge="1">
                    <mxGeometry x="-0.6353" width="160" relative="1" as="geometry">
                        <mxPoint x="710" y="670" as="sourcePoint"/>
                        <mxPoint x="629.9999999999995" y="470" as="targetPoint"/>
                        <Array as="points">
                            <mxPoint x="720" y="530"/>
                        </Array>
                        <mxPoint as="offset"/>
                    </mxGeometry>
                </mxCell>
                <mxCell id="68" value="Extends" style="endArrow=block;endSize=16;endFill=0;html=1;entryX=1;entryY=0;entryDx=0;entryDy=0;exitX=0.5;exitY=0;exitDx=0;exitDy=0;edgeStyle=elbowEdgeStyle;" parent="1" source="xLHPYMrKe80LzgOzbX_y-203" target="36" edge="1">
                    <mxGeometry x="-0.1143" width="160" relative="1" as="geometry">
                        <mxPoint x="380" y="1080" as="sourcePoint"/>
                        <mxPoint x="299.99999999999955" y="880" as="targetPoint"/>
                        <Array as="points">
                            <mxPoint x="320" y="980"/>
                            <mxPoint x="380" y="1020"/>
                            <mxPoint x="400" y="970"/>
                        </Array>
                        <mxPoint as="offset"/>
                    </mxGeometry>
                </mxCell>
                <mxCell id="69" value="Extends" style="endArrow=block;endSize=16;endFill=0;html=1;entryX=1;entryY=0;entryDx=0;entryDy=0;exitX=0.5;exitY=0;exitDx=0;exitDy=0;edgeStyle=elbowEdgeStyle;" parent="1" source="xLHPYMrKe80LzgOzbX_y-213" target="36" edge="1">
                    <mxGeometry x="-0.4531" width="160" relative="1" as="geometry">
                        <mxPoint x="560" y="1016" as="sourcePoint"/>
                        <mxPoint x="479.99999999999955" y="816" as="targetPoint"/>
                        <Array as="points">
                            <mxPoint x="520" y="980"/>
                            <mxPoint x="530" y="980"/>
                            <mxPoint x="520" y="900"/>
                            <mxPoint x="560" y="956"/>
                            <mxPoint x="580" y="906"/>
                        </Array>
                        <mxPoint as="offset"/>
                    </mxGeometry>
                </mxCell>
                <mxCell id="70" value="Extends" style="endArrow=block;endSize=16;endFill=0;html=1;entryX=1;entryY=0;entryDx=0;entryDy=0;exitX=0.5;exitY=0;exitDx=0;exitDy=0;edgeStyle=elbowEdgeStyle;" parent="1" source="xLHPYMrKe80LzgOzbX_y-223" target="36" edge="1">
                    <mxGeometry x="-0.6353" width="160" relative="1" as="geometry">
                        <mxPoint x="710" y="1016" as="sourcePoint"/>
                        <mxPoint x="629.9999999999995" y="816" as="targetPoint"/>
                        <Array as="points">
                            <mxPoint x="720" y="970"/>
                            <mxPoint x="710" y="956"/>
                            <mxPoint x="730" y="906"/>
                        </Array>
                        <mxPoint as="offset"/>
                    </mxGeometry>
                </mxCell>
                <mxCell id="71" value="Extends" style="endArrow=block;endSize=16;endFill=0;html=1;entryX=1;entryY=0;entryDx=0;entryDy=0;exitX=0.5;exitY=0;exitDx=0;exitDy=0;edgeStyle=elbowEdgeStyle;" parent="1" source="xLHPYMrKe80LzgOzbX_y-233" target="43" edge="1">
                    <mxGeometry x="-0.1143" width="160" relative="1" as="geometry">
                        <mxPoint x="320" y="1415.9999999999995" as="sourcePoint"/>
                        <mxPoint x="239.99999999999955" y="1215.9999999999995" as="targetPoint"/>
                        <Array as="points">
                            <mxPoint x="320" y="1356"/>
                            <mxPoint x="380" y="1396"/>
                            <mxPoint x="400" y="1346"/>
                        </Array>
                        <mxPoint as="offset"/>
                    </mxGeometry>
                </mxCell>
                <mxCell id="72" value="Extends" style="endArrow=block;endSize=16;endFill=0;html=1;entryX=1;entryY=0;entryDx=0;entryDy=0;exitX=0.5;exitY=0;exitDx=0;exitDy=0;edgeStyle=elbowEdgeStyle;" parent="1" target="43" edge="1">
                    <mxGeometry x="-0.6089" width="160" relative="1" as="geometry">
                        <mxPoint x="723.9999999999995" y="1439.9999999999995" as="sourcePoint"/>
                        <mxPoint x="249.99999999999955" y="1249.9999999999995" as="targetPoint"/>
                        <Array as="points">
                            <mxPoint x="720" y="1410"/>
                            <mxPoint x="740" y="1370"/>
                            <mxPoint x="760" y="1390"/>
                            <mxPoint x="520" y="1390"/>
                            <mxPoint x="510" y="1390"/>
                            <mxPoint x="524" y="1380"/>
                            <mxPoint x="524" y="1370"/>
                            <mxPoint x="530" y="1380"/>
                            <mxPoint x="330" y="1366"/>
                            <mxPoint x="390" y="1406"/>
                            <mxPoint x="410" y="1356"/>
                        </Array>
                        <mxPoint as="offset"/>
                    </mxGeometry>
                </mxCell>
                <mxCell id="73" value="BlindajeReforzado" style="swimlane;fontStyle=1;align=center;verticalAlign=top;childLayout=stackLayout;horizontal=1;startSize=40;horizontalStack=0;resizeParent=1;resizeParentMax=0;resizeLast=0;collapsible=1;marginBottom=0;" parent="1" vertex="1">
                    <mxGeometry x="440" y="1440" width="160" height="152" as="geometry"/>
                </mxCell>
                <mxCell id="74" value="" style="line;strokeWidth=1;fillColor=none;align=left;verticalAlign=middle;spacingTop=-1;spacingLeft=3;spacingRight=3;rotatable=0;labelPosition=right;points=[];portConstraint=eastwest;" parent="73" vertex="1">
                    <mxGeometry y="40" width="160" height="8" as="geometry"/>
                </mxCell>
                <mxCell id="75" value="+ getAtaque(): int" style="text;strokeColor=none;fillColor=none;align=left;verticalAlign=top;spacingLeft=4;spacingRight=4;overflow=hidden;rotatable=0;points=[[0,0.5],[1,0.5]];portConstraint=eastwest;" parent="73" vertex="1">
                    <mxGeometry y="48" width="160" height="26" as="geometry"/>
                </mxCell>
                <mxCell id="76" value="+ getDefensa(): int" style="text;strokeColor=none;fillColor=none;align=left;verticalAlign=top;spacingLeft=4;spacingRight=4;overflow=hidden;rotatable=0;points=[[0,0.5],[1,0.5]];portConstraint=eastwest;" parent="73" vertex="1">
                    <mxGeometry y="74" width="160" height="26" as="geometry"/>
                </mxCell>
                <mxCell id="77" value="+ getVelocidad(): int" style="text;strokeColor=none;fillColor=none;align=left;verticalAlign=top;spacingLeft=4;spacingRight=4;overflow=hidden;rotatable=0;points=[[0,0.5],[1,0.5]];portConstraint=eastwest;" parent="73" vertex="1">
                    <mxGeometry y="100" width="160" height="26" as="geometry"/>
                </mxCell>
                <mxCell id="78" value="+ getCosto(): int" style="text;strokeColor=none;fillColor=none;align=left;verticalAlign=top;spacingLeft=4;spacingRight=4;overflow=hidden;rotatable=0;points=[[0,0.5],[1,0.5]];portConstraint=eastwest;" parent="73" vertex="1">
                    <mxGeometry y="126" width="160" height="26" as="geometry"/>
                </mxCell>
                <mxCell id="79" value="Extends" style="endArrow=block;endSize=16;endFill=0;html=1;entryX=1;entryY=0;entryDx=0;entryDy=0;exitX=0.5;exitY=0;exitDx=0;exitDy=0;edgeStyle=elbowEdgeStyle;" parent="1" source="73" target="43" edge="1">
                    <mxGeometry x="-0.4833" width="160" relative="1" as="geometry">
                        <mxPoint x="530" y="1449.9999999999995" as="sourcePoint"/>
                        <mxPoint x="249.99999999999955" y="1249.9999999999995" as="targetPoint"/>
                        <Array as="points">
                            <mxPoint x="520" y="1370"/>
                            <mxPoint x="620" y="1380"/>
                            <mxPoint x="530" y="1400"/>
                            <mxPoint x="520" y="1400"/>
                            <mxPoint x="534" y="1390"/>
                            <mxPoint x="534" y="1380"/>
                            <mxPoint x="540" y="1390"/>
                            <mxPoint x="340" y="1376"/>
                            <mxPoint x="400" y="1416"/>
                            <mxPoint x="420" y="1366"/>
                        </Array>
                        <mxPoint as="offset"/>
                    </mxGeometry>
                </mxCell>
                <mxCell id="80" value="BlindajeTanque" style="swimlane;fontStyle=1;align=center;verticalAlign=top;childLayout=stackLayout;horizontal=1;startSize=40;horizontalStack=0;resizeParent=1;resizeParentMax=0;resizeLast=0;collapsible=1;marginBottom=0;" parent="1" vertex="1">
                    <mxGeometry x="640" y="1440" width="160" height="152" as="geometry"/>
                </mxCell>
                <mxCell id="81" value="" style="line;strokeWidth=1;fillColor=none;align=left;verticalAlign=middle;spacingTop=-1;spacingLeft=3;spacingRight=3;rotatable=0;labelPosition=right;points=[];portConstraint=eastwest;" parent="80" vertex="1">
                    <mxGeometry y="40" width="160" height="8" as="geometry"/>
                </mxCell>
                <mxCell id="82" value="+ getAtaque(): int" style="text;strokeColor=none;fillColor=none;align=left;verticalAlign=top;spacingLeft=4;spacingRight=4;overflow=hidden;rotatable=0;points=[[0,0.5],[1,0.5]];portConstraint=eastwest;" parent="80" vertex="1">
                    <mxGeometry y="48" width="160" height="26" as="geometry"/>
                </mxCell>
                <mxCell id="83" value="+ getDefensa(): int" style="text;strokeColor=none;fillColor=none;align=left;verticalAlign=top;spacingLeft=4;spacingRight=4;overflow=hidden;rotatable=0;points=[[0,0.5],[1,0.5]];portConstraint=eastwest;" parent="80" vertex="1">
                    <mxGeometry y="74" width="160" height="26" as="geometry"/>
                </mxCell>
                <mxCell id="84" value="+ getVelocidad(): int" style="text;strokeColor=none;fillColor=none;align=left;verticalAlign=top;spacingLeft=4;spacingRight=4;overflow=hidden;rotatable=0;points=[[0,0.5],[1,0.5]];portConstraint=eastwest;" parent="80" vertex="1">
                    <mxGeometry y="100" width="160" height="26" as="geometry"/>
                </mxCell>
                <mxCell id="85" value="+ getCosto(): int" style="text;strokeColor=none;fillColor=none;align=left;verticalAlign=top;spacingLeft=4;spacingRight=4;overflow=hidden;rotatable=0;points=[[0,0.5],[1,0.5]];portConstraint=eastwest;" parent="80" vertex="1">
                    <mxGeometry y="126" width="160" height="26" as="geometry"/>
                </mxCell>
                <mxCell id="xLHPYMrKe80LzgOzbX_y-263" value="ArmasArpones" style="swimlane;fontStyle=1;align=center;verticalAlign=top;childLayout=stackLayout;horizontal=1;startSize=40;horizontalStack=0;resizeParent=1;resizeParentMax=0;resizeLast=0;collapsible=1;marginBottom=0;" parent="1" vertex="1">
                    <mxGeometry x="240" y="1840" width="160" height="152" as="geometry"/>
                </mxCell>
                <mxCell id="xLHPYMrKe80LzgOzbX_y-268" value="" style="line;strokeWidth=1;fillColor=none;align=left;verticalAlign=middle;spacingTop=-1;spacingLeft=3;spacingRight=3;rotatable=0;labelPosition=right;points=[];portConstraint=eastwest;" parent="xLHPYMrKe80LzgOzbX_y-263" vertex="1">
                    <mxGeometry y="40" width="160" height="8" as="geometry"/>
                </mxCell>
                <mxCell id="xLHPYMrKe80LzgOzbX_y-269" value="+ getAtaque(): int" style="text;strokeColor=none;fillColor=none;align=left;verticalAlign=top;spacingLeft=4;spacingRight=4;overflow=hidden;rotatable=0;points=[[0,0.5],[1,0.5]];portConstraint=eastwest;" parent="xLHPYMrKe80LzgOzbX_y-263" vertex="1">
                    <mxGeometry y="48" width="160" height="26" as="geometry"/>
                </mxCell>
                <mxCell id="xLHPYMrKe80LzgOzbX_y-270" value="+ getDefensa(): int" style="text;strokeColor=none;fillColor=none;align=left;verticalAlign=top;spacingLeft=4;spacingRight=4;overflow=hidden;rotatable=0;points=[[0,0.5],[1,0.5]];portConstraint=eastwest;" parent="xLHPYMrKe80LzgOzbX_y-263" vertex="1">
                    <mxGeometry y="74" width="160" height="26" as="geometry"/>
                </mxCell>
                <mxCell id="xLHPYMrKe80LzgOzbX_y-271" value="+ getVelocidad(): int" style="text;strokeColor=none;fillColor=none;align=left;verticalAlign=top;spacingLeft=4;spacingRight=4;overflow=hidden;rotatable=0;points=[[0,0.5],[1,0.5]];portConstraint=eastwest;" parent="xLHPYMrKe80LzgOzbX_y-263" vertex="1">
                    <mxGeometry y="100" width="160" height="26" as="geometry"/>
                </mxCell>
                <mxCell id="xLHPYMrKe80LzgOzbX_y-272" value="+ getCosto(): int" style="text;strokeColor=none;fillColor=none;align=left;verticalAlign=top;spacingLeft=4;spacingRight=4;overflow=hidden;rotatable=0;points=[[0,0.5],[1,0.5]];portConstraint=eastwest;" parent="xLHPYMrKe80LzgOzbX_y-263" vertex="1">
                    <mxGeometry y="126" width="160" height="26" as="geometry"/>
                </mxCell>
                <mxCell id="xLHPYMrKe80LzgOzbX_y-303" value="ArmasLanzallamas" style="swimlane;fontStyle=1;align=center;verticalAlign=top;childLayout=stackLayout;horizontal=1;startSize=40;horizontalStack=0;resizeParent=1;resizeParentMax=0;resizeLast=0;collapsible=1;marginBottom=0;" parent="1" vertex="1">
                    <mxGeometry x="440" y="1840" width="160" height="152" as="geometry"/>
                </mxCell>
                <mxCell id="xLHPYMrKe80LzgOzbX_y-308" value="" style="line;strokeWidth=1;fillColor=none;align=left;verticalAlign=middle;spacingTop=-1;spacingLeft=3;spacingRight=3;rotatable=0;labelPosition=right;points=[];portConstraint=eastwest;" parent="xLHPYMrKe80LzgOzbX_y-303" vertex="1">
                    <mxGeometry y="40" width="160" height="8" as="geometry"/>
                </mxCell>
                <mxCell id="xLHPYMrKe80LzgOzbX_y-309" value="+ getAtaque(): int" style="text;strokeColor=none;fillColor=none;align=left;verticalAlign=top;spacingLeft=4;spacingRight=4;overflow=hidden;rotatable=0;points=[[0,0.5],[1,0.5]];portConstraint=eastwest;" parent="xLHPYMrKe80LzgOzbX_y-303" vertex="1">
                    <mxGeometry y="48" width="160" height="26" as="geometry"/>
                </mxCell>
                <mxCell id="xLHPYMrKe80LzgOzbX_y-310" value="+ getDefensa(): int" style="text;strokeColor=none;fillColor=none;align=left;verticalAlign=top;spacingLeft=4;spacingRight=4;overflow=hidden;rotatable=0;points=[[0,0.5],[1,0.5]];portConstraint=eastwest;" parent="xLHPYMrKe80LzgOzbX_y-303" vertex="1">
                    <mxGeometry y="74" width="160" height="26" as="geometry"/>
                </mxCell>
                <mxCell id="xLHPYMrKe80LzgOzbX_y-311" value="+ getVelocidad(): int" style="text;strokeColor=none;fillColor=none;align=left;verticalAlign=top;spacingLeft=4;spacingRight=4;overflow=hidden;rotatable=0;points=[[0,0.5],[1,0.5]];portConstraint=eastwest;" parent="xLHPYMrKe80LzgOzbX_y-303" vertex="1">
                    <mxGeometry y="100" width="160" height="26" as="geometry"/>
                </mxCell>
                <mxCell id="xLHPYMrKe80LzgOzbX_y-312" value="+ getCosto(): int" style="text;strokeColor=none;fillColor=none;align=left;verticalAlign=top;spacingLeft=4;spacingRight=4;overflow=hidden;rotatable=0;points=[[0,0.5],[1,0.5]];portConstraint=eastwest;" parent="xLHPYMrKe80LzgOzbX_y-303" vertex="1">
                    <mxGeometry y="126" width="160" height="26" as="geometry"/>
                </mxCell>
                <mxCell id="xLHPYMrKe80LzgOzbX_y-293" value="ArmasCanones" style="swimlane;fontStyle=1;align=center;verticalAlign=top;childLayout=stackLayout;horizontal=1;startSize=40;horizontalStack=0;resizeParent=1;resizeParentMax=0;resizeLast=0;collapsible=1;marginBottom=0;" parent="1" vertex="1">
                    <mxGeometry x="640" y="1840" width="160" height="152" as="geometry"/>
                </mxCell>
                <mxCell id="xLHPYMrKe80LzgOzbX_y-298" value="" style="line;strokeWidth=1;fillColor=none;align=left;verticalAlign=middle;spacingTop=-1;spacingLeft=3;spacingRight=3;rotatable=0;labelPosition=right;points=[];portConstraint=eastwest;" parent="xLHPYMrKe80LzgOzbX_y-293" vertex="1">
                    <mxGeometry y="40" width="160" height="8" as="geometry"/>
                </mxCell>
                <mxCell id="xLHPYMrKe80LzgOzbX_y-299" value="+ getAtaque(): int" style="text;strokeColor=none;fillColor=none;align=left;verticalAlign=top;spacingLeft=4;spacingRight=4;overflow=hidden;rotatable=0;points=[[0,0.5],[1,0.5]];portConstraint=eastwest;" parent="xLHPYMrKe80LzgOzbX_y-293" vertex="1">
                    <mxGeometry y="48" width="160" height="26" as="geometry"/>
                </mxCell>
                <mxCell id="xLHPYMrKe80LzgOzbX_y-300" value="+ getDefensa(): int" style="text;strokeColor=none;fillColor=none;align=left;verticalAlign=top;spacingLeft=4;spacingRight=4;overflow=hidden;rotatable=0;points=[[0,0.5],[1,0.5]];portConstraint=eastwest;" parent="xLHPYMrKe80LzgOzbX_y-293" vertex="1">
                    <mxGeometry y="74" width="160" height="26" as="geometry"/>
                </mxCell>
                <mxCell id="xLHPYMrKe80LzgOzbX_y-301" value="+ getVelocidad(): int" style="text;strokeColor=none;fillColor=none;align=left;verticalAlign=top;spacingLeft=4;spacingRight=4;overflow=hidden;rotatable=0;points=[[0,0.5],[1,0.5]];portConstraint=eastwest;" parent="xLHPYMrKe80LzgOzbX_y-293" vertex="1">
                    <mxGeometry y="100" width="160" height="26" as="geometry"/>
                </mxCell>
                <mxCell id="xLHPYMrKe80LzgOzbX_y-302" value="+ getCosto(): int" style="text;strokeColor=none;fillColor=none;align=left;verticalAlign=top;spacingLeft=4;spacingRight=4;overflow=hidden;rotatable=0;points=[[0,0.5],[1,0.5]];portConstraint=eastwest;" parent="xLHPYMrKe80LzgOzbX_y-293" vertex="1">
                    <mxGeometry y="126" width="160" height="26" as="geometry"/>
                </mxCell>
                <mxCell id="xLHPYMrKe80LzgOzbX_y-283" value="ArmasSierra" style="swimlane;fontStyle=1;align=center;verticalAlign=top;childLayout=stackLayout;horizontal=1;startSize=40;horizontalStack=0;resizeParent=1;resizeParentMax=0;resizeLast=0;collapsible=1;marginBottom=0;" parent="1" vertex="1">
                    <mxGeometry x="840" y="1840" width="160" height="152" as="geometry"/>
                </mxCell>
                <mxCell id="xLHPYMrKe80LzgOzbX_y-288" value="" style="line;strokeWidth=1;fillColor=none;align=left;verticalAlign=middle;spacingTop=-1;spacingLeft=3;spacingRight=3;rotatable=0;labelPosition=right;points=[];portConstraint=eastwest;" parent="xLHPYMrKe80LzgOzbX_y-283" vertex="1">
                    <mxGeometry y="40" width="160" height="8" as="geometry"/>
                </mxCell>
                <mxCell id="xLHPYMrKe80LzgOzbX_y-289" value="+ getAtaque(): int" style="text;strokeColor=none;fillColor=none;align=left;verticalAlign=top;spacingLeft=4;spacingRight=4;overflow=hidden;rotatable=0;points=[[0,0.5],[1,0.5]];portConstraint=eastwest;" parent="xLHPYMrKe80LzgOzbX_y-283" vertex="1">
                    <mxGeometry y="48" width="160" height="26" as="geometry"/>
                </mxCell>
                <mxCell id="xLHPYMrKe80LzgOzbX_y-290" value="+ getDefensa(): int" style="text;strokeColor=none;fillColor=none;align=left;verticalAlign=top;spacingLeft=4;spacingRight=4;overflow=hidden;rotatable=0;points=[[0,0.5],[1,0.5]];portConstraint=eastwest;" parent="xLHPYMrKe80LzgOzbX_y-283" vertex="1">
                    <mxGeometry y="74" width="160" height="26" as="geometry"/>
                </mxCell>
                <mxCell id="xLHPYMrKe80LzgOzbX_y-291" value="+ getVelocidad(): int" style="text;strokeColor=none;fillColor=none;align=left;verticalAlign=top;spacingLeft=4;spacingRight=4;overflow=hidden;rotatable=0;points=[[0,0.5],[1,0.5]];portConstraint=eastwest;" parent="xLHPYMrKe80LzgOzbX_y-283" vertex="1">
                    <mxGeometry y="100" width="160" height="26" as="geometry"/>
                </mxCell>
                <mxCell id="xLHPYMrKe80LzgOzbX_y-292" value="+ getCosto(): int" style="text;strokeColor=none;fillColor=none;align=left;verticalAlign=top;spacingLeft=4;spacingRight=4;overflow=hidden;rotatable=0;points=[[0,0.5],[1,0.5]];portConstraint=eastwest;" parent="xLHPYMrKe80LzgOzbX_y-283" vertex="1">
                    <mxGeometry y="126" width="160" height="26" as="geometry"/>
                </mxCell>
                <mxCell id="xLHPYMrKe80LzgOzbX_y-273" value="ArmasMetralleta" style="swimlane;fontStyle=1;align=center;verticalAlign=top;childLayout=stackLayout;horizontal=1;startSize=40;horizontalStack=0;resizeParent=1;resizeParentMax=0;resizeLast=0;collapsible=1;marginBottom=0;" parent="1" vertex="1">
                    <mxGeometry x="1040" y="1840" width="160" height="152" as="geometry"/>
                </mxCell>
                <mxCell id="xLHPYMrKe80LzgOzbX_y-278" value="" style="line;strokeWidth=1;fillColor=none;align=left;verticalAlign=middle;spacingTop=-1;spacingLeft=3;spacingRight=3;rotatable=0;labelPosition=right;points=[];portConstraint=eastwest;" parent="xLHPYMrKe80LzgOzbX_y-273" vertex="1">
                    <mxGeometry y="40" width="160" height="8" as="geometry"/>
                </mxCell>
                <mxCell id="xLHPYMrKe80LzgOzbX_y-279" value="+ getAtaque(): int" style="text;strokeColor=none;fillColor=none;align=left;verticalAlign=top;spacingLeft=4;spacingRight=4;overflow=hidden;rotatable=0;points=[[0,0.5],[1,0.5]];portConstraint=eastwest;" parent="xLHPYMrKe80LzgOzbX_y-273" vertex="1">
                    <mxGeometry y="48" width="160" height="26" as="geometry"/>
                </mxCell>
                <mxCell id="xLHPYMrKe80LzgOzbX_y-280" value="+ getDefensa(): int" style="text;strokeColor=none;fillColor=none;align=left;verticalAlign=top;spacingLeft=4;spacingRight=4;overflow=hidden;rotatable=0;points=[[0,0.5],[1,0.5]];portConstraint=eastwest;" parent="xLHPYMrKe80LzgOzbX_y-273" vertex="1">
                    <mxGeometry y="74" width="160" height="26" as="geometry"/>
                </mxCell>
                <mxCell id="xLHPYMrKe80LzgOzbX_y-281" value="+ getVelocidad(): int" style="text;strokeColor=none;fillColor=none;align=left;verticalAlign=top;spacingLeft=4;spacingRight=4;overflow=hidden;rotatable=0;points=[[0,0.5],[1,0.5]];portConstraint=eastwest;" parent="xLHPYMrKe80LzgOzbX_y-273" vertex="1">
                    <mxGeometry y="100" width="160" height="26" as="geometry"/>
                </mxCell>
                <mxCell id="xLHPYMrKe80LzgOzbX_y-282" value="+ getCosto(): int" style="text;strokeColor=none;fillColor=none;align=left;verticalAlign=top;spacingLeft=4;spacingRight=4;overflow=hidden;rotatable=0;points=[[0,0.5],[1,0.5]];portConstraint=eastwest;" parent="xLHPYMrKe80LzgOzbX_y-273" vertex="1">
                    <mxGeometry y="126" width="160" height="26" as="geometry"/>
                </mxCell>
                <mxCell id="86" value="Extends" style="endArrow=block;endSize=16;endFill=0;html=1;entryX=1;entryY=0;entryDx=0;entryDy=0;exitX=0.5;exitY=0;exitDx=0;exitDy=0;edgeStyle=elbowEdgeStyle;" parent="1" source="xLHPYMrKe80LzgOzbX_y-263" target="49" edge="1">
                    <mxGeometry x="-0.1143" width="160" relative="1" as="geometry">
                        <mxPoint x="340" y="1829.9999999999995" as="sourcePoint"/>
                        <mxPoint x="259.99999999999955" y="1629.9999999999995" as="targetPoint"/>
                        <Array as="points">
                            <mxPoint x="320" y="1770"/>
                            <mxPoint x="340" y="1746"/>
                            <mxPoint x="400" y="1786"/>
                            <mxPoint x="420" y="1736"/>
                        </Array>
                        <mxPoint as="offset"/>
                    </mxGeometry>
                </mxCell>
                <mxCell id="87" value="Extends" style="endArrow=block;endSize=16;endFill=0;html=1;entryX=1;entryY=0;entryDx=0;entryDy=0;exitX=0.5;exitY=0;exitDx=0;exitDy=0;edgeStyle=elbowEdgeStyle;" parent="1" source="xLHPYMrKe80LzgOzbX_y-303" target="49" edge="1">
                    <mxGeometry x="-0.4833" width="160" relative="1" as="geometry">
                        <mxPoint x="520" y="1829.9999999999995" as="sourcePoint"/>
                        <mxPoint x="439.99999999999955" y="1629.9999999999995" as="targetPoint"/>
                        <Array as="points">
                            <mxPoint x="520" y="1746"/>
                            <mxPoint x="580" y="1786"/>
                            <mxPoint x="600" y="1736"/>
                        </Array>
                        <mxPoint as="offset"/>
                    </mxGeometry>
                </mxCell>
                <mxCell id="88" value="Extends" style="endArrow=block;endSize=16;endFill=0;html=1;entryX=1;entryY=0;entryDx=0;entryDy=0;exitX=0.5;exitY=0;exitDx=0;exitDy=0;edgeStyle=elbowEdgeStyle;" parent="1" source="xLHPYMrKe80LzgOzbX_y-293" target="49" edge="1">
                    <mxGeometry x="-0.6353" width="160" relative="1" as="geometry">
                        <mxPoint x="710" y="1839.9999999999995" as="sourcePoint"/>
                        <mxPoint x="629.9999999999995" y="1639.9999999999995" as="targetPoint"/>
                        <Array as="points">
                            <mxPoint x="720" y="1780"/>
                            <mxPoint x="710" y="1756"/>
                            <mxPoint x="770" y="1796"/>
                            <mxPoint x="790" y="1746"/>
                        </Array>
                        <mxPoint as="offset"/>
                    </mxGeometry>
                </mxCell>
                <mxCell id="89" value="Extends" style="endArrow=block;endSize=16;endFill=0;html=1;entryX=1;entryY=0;entryDx=0;entryDy=0;exitX=0.5;exitY=0;exitDx=0;exitDy=0;edgeStyle=elbowEdgeStyle;" parent="1" source="xLHPYMrKe80LzgOzbX_y-283" target="49" edge="1">
                    <mxGeometry x="-0.7182" width="160" relative="1" as="geometry">
                        <mxPoint x="940" y="1799.9999999999995" as="sourcePoint"/>
                        <mxPoint x="859.9999999999995" y="1599.9999999999995" as="targetPoint"/>
                        <Array as="points">
                            <mxPoint x="920" y="1770"/>
                            <mxPoint x="940" y="1716"/>
                            <mxPoint x="1000" y="1756"/>
                            <mxPoint x="1020" y="1706"/>
                        </Array>
                        <mxPoint as="offset"/>
                    </mxGeometry>
                </mxCell>
                <mxCell id="90" value="Extends" style="endArrow=block;endSize=16;endFill=0;html=1;entryX=1;entryY=0;entryDx=0;entryDy=0;exitX=0.5;exitY=0;exitDx=0;exitDy=0;edgeStyle=elbowEdgeStyle;" parent="1" source="xLHPYMrKe80LzgOzbX_y-273" target="49" edge="1">
                    <mxGeometry x="-0.7593" width="160" relative="1" as="geometry">
                        <mxPoint x="1150" y="1815.9999999999995" as="sourcePoint"/>
                        <mxPoint x="1069.9999999999995" y="1615.9999999999995" as="targetPoint"/>
                        <Array as="points">
                            <mxPoint x="1120" y="1780"/>
                            <mxPoint x="1150" y="1732"/>
                            <mxPoint x="1210" y="1772"/>
                            <mxPoint x="1230" y="1722"/>
                        </Array>
                        <mxPoint y="-1" as="offset"/>
                    </mxGeometry>
                </mxCell>
                <mxCell id="AQtnp8kkt5YR3Xb1jC8a-137" value="" style="endArrow=diamondThin;endFill=0;endSize=24;html=1;entryX=1;entryY=0;entryDx=0;entryDy=0;exitX=0;exitY=0;exitDx=0;exitDy=0;edgeStyle=elbowEdgeStyle;elbow=vertical;" edge="1" parent="1" source="AQtnp8kkt5YR3Xb1jC8a-97" target="AQtnp8kkt5YR3Xb1jC8a-118">
                    <mxGeometry width="160" relative="1" as="geometry">
                        <mxPoint x="-620" y="-152" as="sourcePoint"/>
                        <mxPoint x="-460" y="-152" as="targetPoint"/>
                        <Array as="points">
                            <mxPoint x="-580" y="180"/>
                            <mxPoint x="-580" y="200"/>
                            <mxPoint x="-590" y="210"/>
                            <mxPoint x="-660" y="-193"/>
                        </Array>
                    </mxGeometry>
                </mxCell>
                <mxCell id="AQtnp8kkt5YR3Xb1jC8a-138" value="" style="endArrow=block;dashed=1;endFill=0;endSize=12;html=1;exitX=1;exitY=0;exitDx=0;exitDy=0;entryX=0;entryY=0;entryDx=0;entryDy=0;edgeStyle=elbowEdgeStyle;" edge="1" parent="1" source="AQtnp8kkt5YR3Xb1jC8a-118" target="AQtnp8kkt5YR3Xb1jC8a-90">
                    <mxGeometry width="160" relative="1" as="geometry">
                        <mxPoint x="-620" y="-302" as="sourcePoint"/>
                        <mxPoint x="-460" y="-302" as="targetPoint"/>
                        <Array as="points">
                            <mxPoint x="-700" y="40"/>
                        </Array>
                    </mxGeometry>
                </mxCell>
                <mxCell id="AQtnp8kkt5YR3Xb1jC8a-139" value="" style="endArrow=diamondThin;endFill=0;endSize=24;html=1;entryX=1;entryY=0;entryDx=0;entryDy=0;exitX=0;exitY=0;exitDx=0;exitDy=0;edgeStyle=elbowEdgeStyle;" edge="1" parent="1" source="AQtnp8kkt5YR3Xb1jC8a-90" target="AQtnp8kkt5YR3Xb1jC8a-128">
                    <mxGeometry width="160" relative="1" as="geometry">
                        <mxPoint x="-810" y="-392" as="sourcePoint"/>
                        <mxPoint x="-650" y="-392" as="targetPoint"/>
                        <Array as="points">
                            <mxPoint x="-360" y="-362"/>
                        </Array>
                    </mxGeometry>
                </mxCell>
                <mxCell id="AQtnp8kkt5YR3Xb1jC8a-128" value="Director" style="swimlane;fontStyle=1;align=center;verticalAlign=top;childLayout=stackLayout;horizontal=1;startSize=26;horizontalStack=0;resizeParent=1;resizeParentMax=0;resizeLast=0;collapsible=1;marginBottom=0;" vertex="1" parent="1">
                    <mxGeometry x="-1130" y="-470" width="350" height="216" as="geometry"/>
                </mxCell>
                <mxCell id="AQtnp8kkt5YR3Xb1jC8a-129" value="# builderAUsar: BuilderAutos" style="text;strokeColor=none;fillColor=none;align=left;verticalAlign=top;spacingLeft=4;spacingRight=4;overflow=hidden;rotatable=0;points=[[0,0.5],[1,0.5]];portConstraint=eastwest;" vertex="1" parent="AQtnp8kkt5YR3Xb1jC8a-128">
                    <mxGeometry y="26" width="350" height="26" as="geometry"/>
                </mxCell>
                <mxCell id="AQtnp8kkt5YR3Xb1jC8a-130" value="" style="line;strokeWidth=1;fillColor=none;align=left;verticalAlign=middle;spacingTop=-1;spacingLeft=3;spacingRight=3;rotatable=0;labelPosition=right;points=[];portConstraint=eastwest;" vertex="1" parent="AQtnp8kkt5YR3Xb1jC8a-128">
                    <mxGeometry y="52" width="350" height="8" as="geometry"/>
                </mxCell>
                <mxCell id="AQtnp8kkt5YR3Xb1jC8a-131" value="+ Director(builder:BuilderAutos)" style="text;strokeColor=none;fillColor=none;align=left;verticalAlign=top;spacingLeft=4;spacingRight=4;overflow=hidden;rotatable=0;points=[[0,0.5],[1,0.5]];portConstraint=eastwest;" vertex="1" parent="AQtnp8kkt5YR3Xb1jC8a-128">
                    <mxGeometry y="60" width="350" height="26" as="geometry"/>
                </mxCell>
                <mxCell id="AQtnp8kkt5YR3Xb1jC8a-132" value="+ cambiarBuilder(builder:BuilderAutos):  void" style="text;strokeColor=none;fillColor=none;align=left;verticalAlign=top;spacingLeft=4;spacingRight=4;overflow=hidden;rotatable=0;points=[[0,0.5],[1,0.5]];portConstraint=eastwest;" vertex="1" parent="AQtnp8kkt5YR3Xb1jC8a-128">
                    <mxGeometry y="86" width="350" height="26" as="geometry"/>
                </mxCell>
                <mxCell id="AQtnp8kkt5YR3Xb1jC8a-133" value="+ theRipper(): void " style="text;strokeColor=none;fillColor=none;align=left;verticalAlign=top;spacingLeft=4;spacingRight=4;overflow=hidden;rotatable=0;points=[[0,0.5],[1,0.5]];portConstraint=eastwest;" vertex="1" parent="AQtnp8kkt5YR3Xb1jC8a-128">
                    <mxGeometry y="112" width="350" height="26" as="geometry"/>
                </mxCell>
                <mxCell id="AQtnp8kkt5YR3Xb1jC8a-134" value="+ theFurnace(): void" style="text;strokeColor=none;fillColor=none;align=left;verticalAlign=top;spacingLeft=4;spacingRight=4;overflow=hidden;rotatable=0;points=[[0,0.5],[1,0.5]];portConstraint=eastwest;" vertex="1" parent="AQtnp8kkt5YR3Xb1jC8a-128">
                    <mxGeometry y="138" width="350" height="26" as="geometry"/>
                </mxCell>
                <mxCell id="AQtnp8kkt5YR3Xb1jC8a-135" value="+ theDieRolla(): void" style="text;strokeColor=none;fillColor=none;align=left;verticalAlign=top;spacingLeft=4;spacingRight=4;overflow=hidden;rotatable=0;points=[[0,0.5],[1,0.5]];portConstraint=eastwest;" vertex="1" parent="AQtnp8kkt5YR3Xb1jC8a-128">
                    <mxGeometry y="164" width="350" height="26" as="geometry"/>
                </mxCell>
                <mxCell id="AQtnp8kkt5YR3Xb1jC8a-136" value="+ theDeathRattle(): void" style="text;strokeColor=none;fillColor=none;align=left;verticalAlign=top;spacingLeft=4;spacingRight=4;overflow=hidden;rotatable=0;points=[[0,0.5],[1,0.5]];portConstraint=eastwest;" vertex="1" parent="AQtnp8kkt5YR3Xb1jC8a-128">
                    <mxGeometry y="190" width="350" height="26" as="geometry"/>
                </mxCell>
                <mxCell id="AQtnp8kkt5YR3Xb1jC8a-140" value="Menus" style="swimlane;fontStyle=1;align=center;verticalAlign=top;childLayout=stackLayout;horizontal=1;startSize=26;horizontalStack=0;resizeParent=1;resizeParentMax=0;resizeLast=0;collapsible=1;marginBottom=0;" vertex="1" parent="1">
                    <mxGeometry x="-1630" y="-132" width="540" height="164" as="geometry"/>
                </mxCell>
                <mxCell id="AQtnp8kkt5YR3Xb1jC8a-141" value="" style="line;strokeWidth=1;fillColor=none;align=left;verticalAlign=middle;spacingTop=-1;spacingLeft=3;spacingRight=3;rotatable=0;labelPosition=right;points=[];portConstraint=eastwest;" vertex="1" parent="AQtnp8kkt5YR3Xb1jC8a-140">
                    <mxGeometry y="26" width="540" height="8" as="geometry"/>
                </mxCell>
                <mxCell id="AQtnp8kkt5YR3Xb1jC8a-142" value="+ desplegarMenuBienvenida(): void" style="text;strokeColor=none;fillColor=none;align=left;verticalAlign=top;spacingLeft=4;spacingRight=4;overflow=hidden;rotatable=0;points=[[0,0.5],[1,0.5]];portConstraint=eastwest;" vertex="1" parent="AQtnp8kkt5YR3Xb1jC8a-140">
                    <mxGeometry y="34" width="540" height="26" as="geometry"/>
                </mxCell>
                <mxCell id="AQtnp8kkt5YR3Xb1jC8a-143" value="+ desplegarMenuDiseñoFijo(): AutoMadMax" style="text;strokeColor=none;fillColor=none;align=left;verticalAlign=top;spacingLeft=4;spacingRight=4;overflow=hidden;rotatable=0;points=[[0,0.5],[1,0.5]];portConstraint=eastwest;" vertex="1" parent="AQtnp8kkt5YR3Xb1jC8a-140">
                    <mxGeometry y="60" width="540" height="26" as="geometry"/>
                </mxCell>
                <mxCell id="AQtnp8kkt5YR3Xb1jC8a-144" value="+ desplegarMenuDiseñoPersonalizado(): AutoMadMax" style="text;strokeColor=none;fillColor=none;align=left;verticalAlign=top;spacingLeft=4;spacingRight=4;overflow=hidden;rotatable=0;points=[[0,0.5],[1,0.5]];portConstraint=eastwest;" vertex="1" parent="AQtnp8kkt5YR3Xb1jC8a-140">
                    <mxGeometry y="86" width="540" height="26" as="geometry"/>
                </mxCell>
                <mxCell id="AQtnp8kkt5YR3Xb1jC8a-145" value="+ getInt(inicacion:String,error:String,limiteInferior:int,limiteSuperior:int): int" style="text;strokeColor=none;fillColor=none;align=left;verticalAlign=top;spacingLeft=4;spacingRight=4;overflow=hidden;rotatable=0;points=[[0,0.5],[1,0.5]];portConstraint=eastwest;" vertex="1" parent="AQtnp8kkt5YR3Xb1jC8a-140">
                    <mxGeometry y="112" width="540" height="26" as="geometry"/>
                </mxCell>
                <mxCell id="AQtnp8kkt5YR3Xb1jC8a-146" value="+ getint(indicacion:String,error:String):int" style="text;strokeColor=none;fillColor=none;align=left;verticalAlign=top;spacingLeft=4;spacingRight=4;overflow=hidden;rotatable=0;points=[[0,0.5],[1,0.5]];portConstraint=eastwest;" vertex="1" parent="AQtnp8kkt5YR3Xb1jC8a-140">
                    <mxGeometry y="138" width="540" height="26" as="geometry"/>
                </mxCell>
                <mxCell id="AQtnp8kkt5YR3Xb1jC8a-90" value="&lt;&lt;interface&gt;&gt;&#10;BuilderAutos" style="swimlane;fontStyle=1;align=center;verticalAlign=top;childLayout=stackLayout;horizontal=1;startSize=44;horizontalStack=0;resizeParent=1;resizeParentMax=0;resizeLast=0;collapsible=1;marginBottom=0;" vertex="1" parent="1">
                    <mxGeometry x="-360" y="-320" width="280" height="182" as="geometry"/>
                </mxCell>
                <mxCell id="AQtnp8kkt5YR3Xb1jC8a-91" value="" style="line;strokeWidth=1;fillColor=none;align=left;verticalAlign=middle;spacingTop=-1;spacingLeft=3;spacingRight=3;rotatable=0;labelPosition=right;points=[];portConstraint=eastwest;" vertex="1" parent="AQtnp8kkt5YR3Xb1jC8a-90">
                    <mxGeometry y="44" width="280" height="8" as="geometry"/>
                </mxCell>
                <mxCell id="AQtnp8kkt5YR3Xb1jC8a-92" value="+ escogerLlantas(llantas:Llantas): void" style="text;strokeColor=none;fillColor=none;align=left;verticalAlign=top;spacingLeft=4;spacingRight=4;overflow=hidden;rotatable=0;points=[[0,0.5],[1,0.5]];portConstraint=eastwest;" vertex="1" parent="AQtnp8kkt5YR3Xb1jC8a-90">
                    <mxGeometry y="52" width="280" height="26" as="geometry"/>
                </mxCell>
                <mxCell id="AQtnp8kkt5YR3Xb1jC8a-93" value="+ escogerMotor(motor:Motor): void" style="text;strokeColor=none;fillColor=none;align=left;verticalAlign=top;spacingLeft=4;spacingRight=4;overflow=hidden;rotatable=0;points=[[0,0.5],[1,0.5]];portConstraint=eastwest;" vertex="1" parent="AQtnp8kkt5YR3Xb1jC8a-90">
                    <mxGeometry y="78" width="280" height="26" as="geometry"/>
                </mxCell>
                <mxCell id="AQtnp8kkt5YR3Xb1jC8a-94" value="+ escogerCarroceria(carroceria:Carroceria): void" style="text;strokeColor=none;fillColor=none;align=left;verticalAlign=top;spacingLeft=4;spacingRight=4;overflow=hidden;rotatable=0;points=[[0,0.5],[1,0.5]];portConstraint=eastwest;" vertex="1" parent="AQtnp8kkt5YR3Xb1jC8a-90">
                    <mxGeometry y="104" width="280" height="26" as="geometry"/>
                </mxCell>
                <mxCell id="AQtnp8kkt5YR3Xb1jC8a-95" value="+ escogerBlindaje(blindaje:Blindaje): void" style="text;strokeColor=none;fillColor=none;align=left;verticalAlign=top;spacingLeft=4;spacingRight=4;overflow=hidden;rotatable=0;points=[[0,0.5],[1,0.5]];portConstraint=eastwest;" vertex="1" parent="AQtnp8kkt5YR3Xb1jC8a-90">
                    <mxGeometry y="130" width="280" height="26" as="geometry"/>
                </mxCell>
                <mxCell id="AQtnp8kkt5YR3Xb1jC8a-96" value="+ escogerArmas(armas:Armas): void" style="text;strokeColor=none;fillColor=none;align=left;verticalAlign=top;spacingLeft=4;spacingRight=4;overflow=hidden;rotatable=0;points=[[0,0.5],[1,0.5]];portConstraint=eastwest;" vertex="1" parent="AQtnp8kkt5YR3Xb1jC8a-90">
                    <mxGeometry y="156" width="280" height="26" as="geometry"/>
                </mxCell>
                <mxCell id="AQtnp8kkt5YR3Xb1jC8a-97" value="AutoMadMax" style="swimlane;fontStyle=1;align=center;verticalAlign=top;childLayout=stackLayout;horizontal=1;startSize=26;horizontalStack=0;resizeParent=1;resizeParentMax=0;resizeLast=0;collapsible=1;marginBottom=0;" vertex="1" parent="1">
                    <mxGeometry x="-460" y="240" width="310" height="528" as="geometry"/>
                </mxCell>
                <mxCell id="AQtnp8kkt5YR3Xb1jC8a-98" value="# llantas: Llantas" style="text;strokeColor=none;fillColor=none;align=left;verticalAlign=top;spacingLeft=4;spacingRight=4;overflow=hidden;rotatable=0;points=[[0,0.5],[1,0.5]];portConstraint=eastwest;" vertex="1" parent="AQtnp8kkt5YR3Xb1jC8a-97">
                    <mxGeometry y="26" width="310" height="26" as="geometry"/>
                </mxCell>
                <mxCell id="AQtnp8kkt5YR3Xb1jC8a-99" value="# motor: Motor" style="text;strokeColor=none;fillColor=none;align=left;verticalAlign=top;spacingLeft=4;spacingRight=4;overflow=hidden;rotatable=0;points=[[0,0.5],[1,0.5]];portConstraint=eastwest;" vertex="1" parent="AQtnp8kkt5YR3Xb1jC8a-97">
                    <mxGeometry y="52" width="310" height="26" as="geometry"/>
                </mxCell>
                <mxCell id="AQtnp8kkt5YR3Xb1jC8a-100" value="# carroceria: Carroceria" style="text;strokeColor=none;fillColor=none;align=left;verticalAlign=top;spacingLeft=4;spacingRight=4;overflow=hidden;rotatable=0;points=[[0,0.5],[1,0.5]];portConstraint=eastwest;" vertex="1" parent="AQtnp8kkt5YR3Xb1jC8a-97">
                    <mxGeometry y="78" width="310" height="26" as="geometry"/>
                </mxCell>
                <mxCell id="AQtnp8kkt5YR3Xb1jC8a-101" value="# blindaje: Blindaje" style="text;strokeColor=none;fillColor=none;align=left;verticalAlign=top;spacingLeft=4;spacingRight=4;overflow=hidden;rotatable=0;points=[[0,0.5],[1,0.5]];portConstraint=eastwest;" vertex="1" parent="AQtnp8kkt5YR3Xb1jC8a-97">
                    <mxGeometry y="104" width="310" height="26" as="geometry"/>
                </mxCell>
                <mxCell id="AQtnp8kkt5YR3Xb1jC8a-102" value="# armas: Armas" style="text;strokeColor=none;fillColor=none;align=left;verticalAlign=top;spacingLeft=4;spacingRight=4;overflow=hidden;rotatable=0;points=[[0,0.5],[1,0.5]];portConstraint=eastwest;" vertex="1" parent="AQtnp8kkt5YR3Xb1jC8a-97">
                    <mxGeometry y="130" width="310" height="26" as="geometry"/>
                </mxCell>
                <mxCell id="AQtnp8kkt5YR3Xb1jC8a-103" value="# velocidad: int" style="text;strokeColor=none;fillColor=none;align=left;verticalAlign=top;spacingLeft=4;spacingRight=4;overflow=hidden;rotatable=0;points=[[0,0.5],[1,0.5]];portConstraint=eastwest;" vertex="1" parent="AQtnp8kkt5YR3Xb1jC8a-97">
                    <mxGeometry y="156" width="310" height="26" as="geometry"/>
                </mxCell>
                <mxCell id="AQtnp8kkt5YR3Xb1jC8a-104" value="# ataque: int" style="text;strokeColor=none;fillColor=none;align=left;verticalAlign=top;spacingLeft=4;spacingRight=4;overflow=hidden;rotatable=0;points=[[0,0.5],[1,0.5]];portConstraint=eastwest;" vertex="1" parent="AQtnp8kkt5YR3Xb1jC8a-97">
                    <mxGeometry y="182" width="310" height="26" as="geometry"/>
                </mxCell>
                <mxCell id="AQtnp8kkt5YR3Xb1jC8a-105" value="# defensa: int" style="text;strokeColor=none;fillColor=none;align=left;verticalAlign=top;spacingLeft=4;spacingRight=4;overflow=hidden;rotatable=0;points=[[0,0.5],[1,0.5]];portConstraint=eastwest;" vertex="1" parent="AQtnp8kkt5YR3Xb1jC8a-97">
                    <mxGeometry y="208" width="310" height="26" as="geometry"/>
                </mxCell>
                <mxCell id="AQtnp8kkt5YR3Xb1jC8a-106" value="# costo: int" style="text;strokeColor=none;fillColor=none;align=left;verticalAlign=top;spacingLeft=4;spacingRight=4;overflow=hidden;rotatable=0;points=[[0,0.5],[1,0.5]];portConstraint=eastwest;" vertex="1" parent="AQtnp8kkt5YR3Xb1jC8a-97">
                    <mxGeometry y="234" width="310" height="26" as="geometry"/>
                </mxCell>
                <mxCell id="AQtnp8kkt5YR3Xb1jC8a-107" value="" style="line;strokeWidth=1;fillColor=none;align=left;verticalAlign=middle;spacingTop=-1;spacingLeft=3;spacingRight=3;rotatable=0;labelPosition=right;points=[];portConstraint=eastwest;" vertex="1" parent="AQtnp8kkt5YR3Xb1jC8a-97">
                    <mxGeometry y="260" width="310" height="8" as="geometry"/>
                </mxCell>
                <mxCell id="AQtnp8kkt5YR3Xb1jC8a-108" value="+ getDescripcion(): String" style="text;strokeColor=none;fillColor=none;align=left;verticalAlign=top;spacingLeft=4;spacingRight=4;overflow=hidden;rotatable=0;points=[[0,0.5],[1,0.5]];portConstraint=eastwest;" vertex="1" parent="AQtnp8kkt5YR3Xb1jC8a-97">
                    <mxGeometry y="268" width="310" height="26" as="geometry"/>
                </mxCell>
                <mxCell id="AQtnp8kkt5YR3Xb1jC8a-109" value="+ setLlantas(llantas:Llantas): void" style="text;strokeColor=none;fillColor=none;align=left;verticalAlign=top;spacingLeft=4;spacingRight=4;overflow=hidden;rotatable=0;points=[[0,0.5],[1,0.5]];portConstraint=eastwest;" vertex="1" parent="AQtnp8kkt5YR3Xb1jC8a-97">
                    <mxGeometry y="294" width="310" height="26" as="geometry"/>
                </mxCell>
                <mxCell id="AQtnp8kkt5YR3Xb1jC8a-110" value="+ setMotor(motor:Motor): void" style="text;strokeColor=none;fillColor=none;align=left;verticalAlign=top;spacingLeft=4;spacingRight=4;overflow=hidden;rotatable=0;points=[[0,0.5],[1,0.5]];portConstraint=eastwest;" vertex="1" parent="AQtnp8kkt5YR3Xb1jC8a-97">
                    <mxGeometry y="320" width="310" height="26" as="geometry"/>
                </mxCell>
                <mxCell id="AQtnp8kkt5YR3Xb1jC8a-111" value="+ setCarroceria(carroceria:Carroceria): void" style="text;strokeColor=none;fillColor=none;align=left;verticalAlign=top;spacingLeft=4;spacingRight=4;overflow=hidden;rotatable=0;points=[[0,0.5],[1,0.5]];portConstraint=eastwest;" vertex="1" parent="AQtnp8kkt5YR3Xb1jC8a-97">
                    <mxGeometry y="346" width="310" height="26" as="geometry"/>
                </mxCell>
                <mxCell id="AQtnp8kkt5YR3Xb1jC8a-112" value="+ setBlindaje(blindaje:Blindaje): void" style="text;strokeColor=none;fillColor=none;align=left;verticalAlign=top;spacingLeft=4;spacingRight=4;overflow=hidden;rotatable=0;points=[[0,0.5],[1,0.5]];portConstraint=eastwest;" vertex="1" parent="AQtnp8kkt5YR3Xb1jC8a-97">
                    <mxGeometry y="372" width="310" height="26" as="geometry"/>
                </mxCell>
                <mxCell id="AQtnp8kkt5YR3Xb1jC8a-113" value="+ setArmas(armas:Armas): void" style="text;strokeColor=none;fillColor=none;align=left;verticalAlign=top;spacingLeft=4;spacingRight=4;overflow=hidden;rotatable=0;points=[[0,0.5],[1,0.5]];portConstraint=eastwest;" vertex="1" parent="AQtnp8kkt5YR3Xb1jC8a-97">
                    <mxGeometry y="398" width="310" height="26" as="geometry"/>
                </mxCell>
                <mxCell id="AQtnp8kkt5YR3Xb1jC8a-114" value="+ getCosto(): int" style="text;strokeColor=none;fillColor=none;align=left;verticalAlign=top;spacingLeft=4;spacingRight=4;overflow=hidden;rotatable=0;points=[[0,0.5],[1,0.5]];portConstraint=eastwest;" vertex="1" parent="AQtnp8kkt5YR3Xb1jC8a-97">
                    <mxGeometry y="424" width="310" height="26" as="geometry"/>
                </mxCell>
                <mxCell id="AQtnp8kkt5YR3Xb1jC8a-115" value="+ getVelocidad(): int" style="text;strokeColor=none;fillColor=none;align=left;verticalAlign=top;spacingLeft=4;spacingRight=4;overflow=hidden;rotatable=0;points=[[0,0.5],[1,0.5]];portConstraint=eastwest;" vertex="1" parent="AQtnp8kkt5YR3Xb1jC8a-97">
                    <mxGeometry y="450" width="310" height="26" as="geometry"/>
                </mxCell>
                <mxCell id="AQtnp8kkt5YR3Xb1jC8a-116" value="+ getAtaque(): int" style="text;strokeColor=none;fillColor=none;align=left;verticalAlign=top;spacingLeft=4;spacingRight=4;overflow=hidden;rotatable=0;points=[[0,0.5],[1,0.5]];portConstraint=eastwest;" vertex="1" parent="AQtnp8kkt5YR3Xb1jC8a-97">
                    <mxGeometry y="476" width="310" height="26" as="geometry"/>
                </mxCell>
                <mxCell id="AQtnp8kkt5YR3Xb1jC8a-117" value="+ getDefensa(): int" style="text;strokeColor=none;fillColor=none;align=left;verticalAlign=top;spacingLeft=4;spacingRight=4;overflow=hidden;rotatable=0;points=[[0,0.5],[1,0.5]];portConstraint=eastwest;" vertex="1" parent="AQtnp8kkt5YR3Xb1jC8a-97">
                    <mxGeometry y="502" width="310" height="26" as="geometry"/>
                </mxCell>
                <mxCell id="AQtnp8kkt5YR3Xb1jC8a-118" value="BuilderAutosMadMax" style="swimlane;fontStyle=1;align=center;verticalAlign=top;childLayout=stackLayout;horizontal=1;startSize=26;horizontalStack=0;resizeParent=1;resizeParentMax=0;resizeLast=0;collapsible=1;marginBottom=0;" vertex="1" parent="1">
                    <mxGeometry x="-960" y="180" width="310" height="242" as="geometry"/>
                </mxCell>
                <mxCell id="AQtnp8kkt5YR3Xb1jC8a-119" value="# autoADisenar: AutoMadMax" style="text;strokeColor=none;fillColor=none;align=left;verticalAlign=top;spacingLeft=4;spacingRight=4;overflow=hidden;rotatable=0;points=[[0,0.5],[1,0.5]];portConstraint=eastwest;" vertex="1" parent="AQtnp8kkt5YR3Xb1jC8a-118">
                    <mxGeometry y="26" width="310" height="26" as="geometry"/>
                </mxCell>
                <mxCell id="AQtnp8kkt5YR3Xb1jC8a-120" value="" style="line;strokeWidth=1;fillColor=none;align=left;verticalAlign=middle;spacingTop=-1;spacingLeft=3;spacingRight=3;rotatable=0;labelPosition=right;points=[];portConstraint=eastwest;" vertex="1" parent="AQtnp8kkt5YR3Xb1jC8a-118">
                    <mxGeometry y="52" width="310" height="8" as="geometry"/>
                </mxCell>
                <mxCell id="AQtnp8kkt5YR3Xb1jC8a-121" value="+ BuilderAutosMadMax()" style="text;strokeColor=none;fillColor=none;align=left;verticalAlign=top;spacingLeft=4;spacingRight=4;overflow=hidden;rotatable=0;points=[[0,0.5],[1,0.5]];portConstraint=eastwest;" vertex="1" parent="AQtnp8kkt5YR3Xb1jC8a-118">
                    <mxGeometry y="60" width="310" height="26" as="geometry"/>
                </mxCell>
                <mxCell id="AQtnp8kkt5YR3Xb1jC8a-122" value="+ getAutoMadMax():AutoMadMax" style="text;strokeColor=none;fillColor=none;align=left;verticalAlign=top;spacingLeft=4;spacingRight=4;overflow=hidden;rotatable=0;points=[[0,0.5],[1,0.5]];portConstraint=eastwest;" vertex="1" parent="AQtnp8kkt5YR3Xb1jC8a-118">
                    <mxGeometry y="86" width="310" height="26" as="geometry"/>
                </mxCell>
                <mxCell id="AQtnp8kkt5YR3Xb1jC8a-123" value="+ escogerLlantas(llantas:Llantas): void" style="text;strokeColor=none;fillColor=none;align=left;verticalAlign=top;spacingLeft=4;spacingRight=4;overflow=hidden;rotatable=0;points=[[0,0.5],[1,0.5]];portConstraint=eastwest;" vertex="1" parent="AQtnp8kkt5YR3Xb1jC8a-118">
                    <mxGeometry y="112" width="310" height="26" as="geometry"/>
                </mxCell>
                <mxCell id="AQtnp8kkt5YR3Xb1jC8a-124" value="+ escogerMotor(motor:Motor): void" style="text;strokeColor=none;fillColor=none;align=left;verticalAlign=top;spacingLeft=4;spacingRight=4;overflow=hidden;rotatable=0;points=[[0,0.5],[1,0.5]];portConstraint=eastwest;" vertex="1" parent="AQtnp8kkt5YR3Xb1jC8a-118">
                    <mxGeometry y="138" width="310" height="26" as="geometry"/>
                </mxCell>
                <mxCell id="AQtnp8kkt5YR3Xb1jC8a-125" value="+ escogerCarroceria(carroceria:Carroceria): void" style="text;strokeColor=none;fillColor=none;align=left;verticalAlign=top;spacingLeft=4;spacingRight=4;overflow=hidden;rotatable=0;points=[[0,0.5],[1,0.5]];portConstraint=eastwest;" vertex="1" parent="AQtnp8kkt5YR3Xb1jC8a-118">
                    <mxGeometry y="164" width="310" height="26" as="geometry"/>
                </mxCell>
                <mxCell id="AQtnp8kkt5YR3Xb1jC8a-126" value="+ escogerBlindaje(blindaje:Blindaje): void" style="text;strokeColor=none;fillColor=none;align=left;verticalAlign=top;spacingLeft=4;spacingRight=4;overflow=hidden;rotatable=0;points=[[0,0.5],[1,0.5]];portConstraint=eastwest;" vertex="1" parent="AQtnp8kkt5YR3Xb1jC8a-118">
                    <mxGeometry y="190" width="310" height="26" as="geometry"/>
                </mxCell>
                <mxCell id="AQtnp8kkt5YR3Xb1jC8a-127" value="+ escogerArmas(armas:Armas): void" style="text;strokeColor=none;fillColor=none;align=left;verticalAlign=top;spacingLeft=4;spacingRight=4;overflow=hidden;rotatable=0;points=[[0,0.5],[1,0.5]];portConstraint=eastwest;" vertex="1" parent="AQtnp8kkt5YR3Xb1jC8a-118">
                    <mxGeometry y="216" width="310" height="26" as="geometry"/>
                </mxCell>
                <mxCell id="AQtnp8kkt5YR3Xb1jC8a-152" value="" style="endArrow=diamondThin;endFill=0;endSize=24;html=1;exitX=0;exitY=0;exitDx=0;exitDy=0;entryX=1;entryY=0.5;entryDx=0;entryDy=0;edgeStyle=elbowEdgeStyle;" edge="1" parent="1" source="xLHPYMrKe80LzgOzbX_y-14" target="AQtnp8kkt5YR3Xb1jC8a-98">
                    <mxGeometry width="160" relative="1" as="geometry">
                        <mxPoint x="-450" y="40" as="sourcePoint"/>
                        <mxPoint x="-290" y="40" as="targetPoint"/>
                        <Array as="points">
                            <mxPoint x="60" y="200"/>
                        </Array>
                    </mxGeometry>
                </mxCell>
                <mxCell id="AQtnp8kkt5YR3Xb1jC8a-153" value="" style="endArrow=diamondThin;endFill=0;endSize=24;html=1;exitX=0.5;exitY=0;exitDx=0;exitDy=0;entryX=1;entryY=0.5;entryDx=0;entryDy=0;edgeStyle=elbowEdgeStyle;" edge="1" parent="1" source="30" target="AQtnp8kkt5YR3Xb1jC8a-99">
                    <mxGeometry width="160" relative="1" as="geometry">
                        <mxPoint x="89.99999999999955" y="50" as="sourcePoint"/>
                        <mxPoint x="-140.00000000000045" y="289" as="targetPoint"/>
                        <Array as="points">
                            <mxPoint x="160" y="400"/>
                            <mxPoint x="60" y="380"/>
                            <mxPoint x="70" y="210"/>
                        </Array>
                    </mxGeometry>
                </mxCell>
                <mxCell id="AQtnp8kkt5YR3Xb1jC8a-154" value="" style="endArrow=diamondThin;endFill=0;endSize=24;html=1;exitX=0;exitY=0;exitDx=0;exitDy=0;entryX=1;entryY=0.5;entryDx=0;entryDy=0;edgeStyle=elbowEdgeStyle;" edge="1" parent="1" source="36" target="AQtnp8kkt5YR3Xb1jC8a-100">
                    <mxGeometry width="160" relative="1" as="geometry">
                        <mxPoint x="99.99999999999955" y="60" as="sourcePoint"/>
                        <mxPoint x="-130.00000000000045" y="299" as="targetPoint"/>
                        <Array as="points">
                            <mxPoint x="50" y="640"/>
                            <mxPoint x="80" y="220"/>
                        </Array>
                    </mxGeometry>
                </mxCell>
                <mxCell id="AQtnp8kkt5YR3Xb1jC8a-155" value="" style="endArrow=diamondThin;endFill=0;endSize=24;html=1;exitX=0;exitY=0;exitDx=0;exitDy=0;entryX=1;entryY=0.5;entryDx=0;entryDy=0;edgeStyle=elbowEdgeStyle;" edge="1" parent="1" source="43" target="AQtnp8kkt5YR3Xb1jC8a-101">
                    <mxGeometry width="160" relative="1" as="geometry">
                        <mxPoint x="109.99999999999955" y="70" as="sourcePoint"/>
                        <mxPoint x="-120.00000000000045" y="309" as="targetPoint"/>
                        <Array as="points">
                            <mxPoint x="70" y="700"/>
                            <mxPoint x="60" y="780"/>
                            <mxPoint x="90" y="230"/>
                        </Array>
                    </mxGeometry>
                </mxCell>
                <mxCell id="AQtnp8kkt5YR3Xb1jC8a-156" value="" style="endArrow=diamondThin;endFill=0;endSize=24;html=1;exitX=0;exitY=0;exitDx=0;exitDy=0;entryX=1;entryY=0.5;entryDx=0;entryDy=0;edgeStyle=elbowEdgeStyle;" edge="1" parent="1" source="49" target="AQtnp8kkt5YR3Xb1jC8a-102">
                    <mxGeometry width="160" relative="1" as="geometry">
                        <mxPoint x="119.99999999999955" y="80" as="sourcePoint"/>
                        <mxPoint x="-110.00000000000045" y="319" as="targetPoint"/>
                        <Array as="points">
                            <mxPoint x="-30" y="400"/>
                            <mxPoint x="100" y="240"/>
                        </Array>
                    </mxGeometry>
                </mxCell>
                <mxCell id="AQtnp8kkt5YR3Xb1jC8a-157" value="Use" style="endArrow=open;endSize=12;dashed=1;html=1;exitX=0.5;exitY=0;exitDx=0;exitDy=0;entryX=0;entryY=0;entryDx=0;entryDy=0;" edge="1" parent="1" source="AQtnp8kkt5YR3Xb1jC8a-140" target="AQtnp8kkt5YR3Xb1jC8a-128">
                    <mxGeometry width="160" relative="1" as="geometry">
                        <mxPoint x="-680" y="-170" as="sourcePoint"/>
                        <mxPoint x="-520" y="-170" as="targetPoint"/>
                    </mxGeometry>
                </mxCell>
                <mxCell id="AQtnp8kkt5YR3Xb1jC8a-159" value="Use" style="endArrow=open;endSize=12;dashed=1;html=1;exitX=0.75;exitY=0;exitDx=0;exitDy=0;entryX=0;entryY=0;entryDx=0;entryDy=0;" edge="1" parent="1" source="AQtnp8kkt5YR3Xb1jC8a-140" target="AQtnp8kkt5YR3Xb1jC8a-90">
                    <mxGeometry width="160" relative="1" as="geometry">
                        <mxPoint x="-1350" y="-122.00000000000023" as="sourcePoint"/>
                        <mxPoint x="-1120" y="-460" as="targetPoint"/>
                    </mxGeometry>
                </mxCell>
                <mxCell id="AQtnp8kkt5YR3Xb1jC8a-147" value="main" style="swimlane;fontStyle=1;align=center;verticalAlign=top;childLayout=stackLayout;horizontal=1;startSize=26;horizontalStack=0;resizeParent=1;resizeParentMax=0;resizeLast=0;collapsible=1;marginBottom=0;" vertex="1" parent="1">
                    <mxGeometry x="-1490" y="310" width="160" height="60" as="geometry"/>
                </mxCell>
                <mxCell id="AQtnp8kkt5YR3Xb1jC8a-149" value="" style="line;strokeWidth=1;fillColor=none;align=left;verticalAlign=middle;spacingTop=-1;spacingLeft=3;spacingRight=3;rotatable=0;labelPosition=right;points=[];portConstraint=eastwest;" vertex="1" parent="AQtnp8kkt5YR3Xb1jC8a-147">
                    <mxGeometry y="26" width="160" height="8" as="geometry"/>
                </mxCell>
                <mxCell id="AQtnp8kkt5YR3Xb1jC8a-150" value="+ main(String[] args): void" style="text;strokeColor=none;fillColor=none;align=left;verticalAlign=top;spacingLeft=4;spacingRight=4;overflow=hidden;rotatable=0;points=[[0,0.5],[1,0.5]];portConstraint=eastwest;" vertex="1" parent="AQtnp8kkt5YR3Xb1jC8a-147">
                    <mxGeometry y="34" width="160" height="26" as="geometry"/>
                </mxCell>
                <mxCell id="AQtnp8kkt5YR3Xb1jC8a-160" value="Use" style="endArrow=open;endSize=12;dashed=1;html=1;exitX=0.5;exitY=0;exitDx=0;exitDy=0;entryX=1;entryY=0;entryDx=0;entryDy=0;edgeStyle=elbowEdgeStyle;" edge="1" parent="1" source="AQtnp8kkt5YR3Xb1jC8a-147" target="AQtnp8kkt5YR3Xb1jC8a-140">
                    <mxGeometry width="160" relative="1" as="geometry">
                        <mxPoint x="-1340" y="-112.00000000000023" as="sourcePoint"/>
                        <mxPoint x="-1110" y="-450" as="targetPoint"/>
                        <Array as="points">
                            <mxPoint x="-1040" y="180"/>
                        </Array>
                    </mxGeometry>
                </mxCell>
            </root>
        </mxGraphModel>
    </diagram>
</mxfile>